<svg xmlns="http://www.w3.org/2000/svg" viewBox="0 0 1121 83.43"><defs><style>.cls-1{fill:#cbccce;}.cls-2{fill:#449375;}.cls-3{fill:#c7d3a5;}.cls-4{fill:#83b09b;}.cls-5{fill:#505a6e;}.cls-6{fill:#e64140;}.cls-7{fill:#f37f80;}.cls-8{fill:#eaa959;}.cls-9{fill:#b4d1c8;}</style></defs><title>flagBannerAsset 36</title><g id="Layer_2" data-name="Layer 2"><g id="Layer_1-2" data-name="Layer 1"><rect class="cls-1" width="1121" height="3"/><polygon class="cls-2" points="134.93 83.43 121.11 41.72 107.3 0 134.93 0 162.56 0 148.75 41.72 134.93 83.43"/><polygon class="cls-3" points="205.86 83.43 192.04 41.72 178.22 0 205.86 0 233.49 0 219.68 41.72 205.86 83.43"/><polygon class="cls-4" points="276.79 83.43 262.97 41.72 249.15 0 276.79 0 304.42 0 290.6 41.72 276.79 83.43"/><polygon class="cls-5" points="347.71 83.43 333.9 41.72 320.08 0 347.71 0 375.35 0 361.53 41.72 347.71 83.43"/><polygon class="cls-6" points="418.64 83.43 404.83 41.72 391.01 0 418.64 0 446.28 0 432.46 41.72 418.64 83.43"/><polygon class="cls-7" points="489.57 83.43 475.75 41.72 461.94 0 489.57 0 517.21 0 503.39 41.72 489.57 83.43"/><polygon class="cls-8" points="560.5 83.43 546.68 41.72 532.87 0 560.5 0 588.13 0 574.32 41.72 560.5 83.43"/><polygon class="cls-9" points="631.43 83.43 617.61 41.72 603.79 0 631.43 0 659.06 0 645.25 41.72 631.43 83.43"/><polygon class="cls-2" points="702.36 83.43 688.54 41.72 674.72 0 702.36 0 729.99 0 716.17 41.72 702.36 83.43"/><polygon class="cls-3" points="773.28 83.43 759.47 41.72 745.65 0 773.28 0 800.92 0 787.1 41.72 773.28 83.43"/><polygon class="cls-4" points="844.21 83.43 830.4 41.72 816.58 0 844.21 0 871.85 0 858.03 41.72 844.21 83.43"/><polygon class="cls-5" points="915.14 83.43 901.32 41.72 887.51 0 915.14 0 942.78 0 928.96 41.72 915.14 83.43"/><polygon class="cls-6" points="986.07 83.43 972.25 41.72 958.43 0 986.07 0 1013.71 0 999.89 41.72 986.07 83.43"/></g></g></svg>