<svg xmlns="http://www.w3.org/2000/svg" viewBox="0 0 514.36 82.15"><defs><style>.cls-1{fill:#b4d1c8;}.cls-2{fill:#e64140;}.cls-3{fill:none;stroke:#e6e7e8;stroke-miterlimit:10;stroke-width:1.07px;}</style></defs><title>ZenNameAsset 37</title><g id="Layer_2" data-name="Layer 2"><g id="Layer_1-2" data-name="Layer 1"><path class="cls-1" d="M32.67,63.15a4.46,4.46,0,0,1-.37-2c0-.84.73-1.8,2.18-2.88a10.42,10.42,0,0,1,6.24-1.61l1.15.05a9.89,9.89,0,0,1-.6-3.84A8.94,8.94,0,0,1,42.77,48a4.66,4.66,0,0,1,4.16-2.37,10.52,10.52,0,0,0-.28,2.51,7.39,7.39,0,0,0,.79,3.1,14.82,14.82,0,0,0,1.88,3.08c.74.92,1.47,1.87,2.21,2.86a12.63,12.63,0,0,1,2.62,7.59,15.71,15.71,0,0,1-1.72,7.33,16.19,16.19,0,0,1-4.53,5.5,21.71,21.71,0,0,1-13.48,4.47A18.34,18.34,0,0,1,25,79.64a15,15,0,0,1-6.3-7.24A32,32,0,0,1,9,81.05a7.24,7.24,0,0,1-3.27,1.06,3.31,3.31,0,0,1-2.34-1,2.73,2.73,0,0,1-1-2,4.36,4.36,0,0,1,.23-1.64q4.14-3.34,10-13.66a56.84,56.84,0,0,0,4.53-10.33A32.72,32.72,0,0,0,19,43.37a5.4,5.4,0,0,0-.57-2.58,5.25,5.25,0,0,1-.58-1.22c0-.1.42-.47,1.27-1.1s1.85-1.5,3-2.6a41.83,41.83,0,0,0,3.56-3.82,19.45,19.45,0,0,0,3.06-5.38,19,19,0,0,0,1.26-7,8,8,0,0,0-7.82-8.26,5.45,5.45,0,0,0-4.48,1.89,6.74,6.74,0,0,0-1.54,4.41,6.83,6.83,0,0,0,1.42,4.35,4.16,4.16,0,0,0,3.32,1.82,10.18,10.18,0,0,0,2.89-.32,3.94,3.94,0,0,1,.37,1.81c0,.72-.64,1.53-1.93,2.42a9.75,9.75,0,0,1-5.57,1.33l-1.15,0a9.89,9.89,0,0,1,.6,3.84,9,9,0,0,1-1.49,4.83,4.69,4.69,0,0,1-4.17,2.37,10.45,10.45,0,0,0,.28-2.58A8.62,8.62,0,0,0,10,34.26,16.63,16.63,0,0,0,8.1,30.92c-.74-1-1.47-2-2.21-3.06a13.94,13.94,0,0,1-2.62-8,10.84,10.84,0,0,1,2.85-7.43,17.85,17.85,0,0,1,7.11-4.81A26.21,26.21,0,0,1,22.55,6,19.9,19.9,0,0,1,31.89,8.2a11.82,11.82,0,0,1,5.88,6.6,31.91,31.91,0,0,1,9.71-7.87,7.74,7.74,0,0,1,3.27-1,3.31,3.31,0,0,1,2.34,1,2.74,2.74,0,0,1,1,2,4.57,4.57,0,0,1-.23,1.64Q49.79,13.65,44,23.4a53.86,53.86,0,0,0-4.47,9.85,30.46,30.46,0,0,0-1.84,9.8,8.48,8.48,0,0,0,1.06,3.72,11.39,11.39,0,0,1-2.28,2.16,31.17,31.17,0,0,0-3.86,3.85,39.71,39.71,0,0,0-3,4.07,21.13,21.13,0,0,0-3.17,11.41,7.4,7.4,0,0,0,2.53,6,8.62,8.62,0,0,0,5.72,2.12A6.08,6.08,0,0,0,41.32,70a8.1,8.1,0,0,0-1.66-5,5.54,5.54,0,0,0-4.74-2.21A9.7,9.7,0,0,0,32.67,63.15Z"/><path class="cls-1" d="M93,38.49c0,1.66-1.08,3.13-3.22,4.42a3.84,3.84,0,0,1,1.7,1.24,5,5,0,0,1,1.52,3c0,1.5-.31,2.35-.92,2.53l-.32.09Q87.65,47,78.67,47.05l-2,20.2c0,2,.61,3.29,1.84,3.81a9.56,9.56,0,0,0,3.61.6A3.92,3.92,0,0,0,85.46,70a6.92,6.92,0,0,0,1.22-4.16,9.87,9.87,0,0,0-3.27-7.27c.31-1.23,1.21-1.84,2.72-1.84,2.6,0,4.57.66,5.89,2l.69.69a8.34,8.34,0,0,1,6.07-2.67,4.27,4.27,0,0,1,2.14.46A2.35,2.35,0,0,1,102,58.55q-3.73,2.94-3.73,9.5t4.19,10c0,.8-.65,1.4-1.93,1.8a5.85,5.85,0,0,1-1.71.23q-4.54,0-7.82-4.37A10.9,10.9,0,0,1,86.13,79,15.89,15.89,0,0,1,81,80.13a14.39,14.39,0,0,1-3.31-.3,10.48,10.48,0,0,1-2.16-.76,12.85,12.85,0,0,1-1.77-1,13.24,13.24,0,0,1-1.43-1.12,15.27,15.27,0,0,1-1.89-2,11.18,11.18,0,0,1-5.7,4.69,8.84,8.84,0,0,1-3.22.56,5.88,5.88,0,0,1-3-.69q-1.2-.69-1.38-1.38l-.19-.69a9.93,9.93,0,0,0,3-2.46c.52-.76.92-1.34,1.18-1.75a6.12,6.12,0,0,0,.66-1.91q.28-1.29.42-2.1a22.64,22.64,0,0,0,.2-2.71c0-1.27.07-2.31.07-3.11V59.47q0-11.78-4.51-15.69a1.13,1.13,0,0,1-.5-.83,1.29,1.29,0,0,1,.5-.87,17.47,17.47,0,0,0,1.27-1.33,11.14,11.14,0,0,0,1.5-2.44q1.74-3.73,1.74-11.67T61.21,15.19a16.45,16.45,0,0,0-4.34-6.51c0-1.11.85-1.92,2.57-2.44A11,11,0,0,1,62.25,6a7.63,7.63,0,0,1,4,1.34,11.22,11.22,0,0,1,3.1,2.62l1,1.34Q74.62,6,80.05,6a17.6,17.6,0,0,1,6,1.13A11.16,11.16,0,0,1,91,10.38Q94.28,6,98.78,6a4.93,4.93,0,0,1,2.44.53,2.5,2.5,0,0,1,1.19,1.59,10,10,0,0,0-3.24,4,13.8,13.8,0,0,0-.94,5.43q0,5.7,3.72,8.51a2.09,2.09,0,0,1-1,1.26,4.38,4.38,0,0,1-2.35.53,7.62,7.62,0,0,1-3-.64,7.77,7.77,0,0,1-2.21-1.29l-.69-.69a8.29,8.29,0,0,1-6,2.62,4.38,4.38,0,0,1-2.16-.46A2.23,2.23,0,0,1,83.37,26a9,9,0,0,0,3.26-6.9c0-2.92-1.65-4.37-5-4.37s-5,1-5,3.17v.41l2,20.57a42.79,42.79,0,0,0,8-.58,13.65,13.65,0,0,0,5.13-2.09c.3,0,.59.22.85.67A3.17,3.17,0,0,1,93,38.49Z"/><path class="cls-1" d="M119.16,74.84q-3.18,5.28-7.59,5.29a6.68,6.68,0,0,1-3.29-.69c-.81-.46-1.28-.92-1.4-1.38l-.19-.69a16.71,16.71,0,0,0,4.37-6.65,29.05,29.05,0,0,0,1.2-9.11,60.89,60.89,0,0,0-.51-8.86,19.5,19.5,0,0,0-1.24-4.92A12.54,12.54,0,0,0,109,45.28a13.42,13.42,0,0,0-1.27-1.41,1.25,1.25,0,0,1-.51-.89,1.28,1.28,0,0,1,.51-.9A17.47,17.47,0,0,0,109,40.75a11.15,11.15,0,0,0,1.49-2.44q1.76-3.73,1.75-11.73t-1.2-11.41a16.94,16.94,0,0,0-4.37-6.49c0-1.07.86-1.89,2.58-2.44a8.56,8.56,0,0,1,2.3-.28q4.5,0,7.59,4.84a8.54,8.54,0,0,1,1.13-1.5A12.17,12.17,0,0,1,122,7.62,7.66,7.66,0,0,1,126.54,6a7.09,7.09,0,0,1,3.48.69A2.8,2.8,0,0,1,131.4,8l.18.69a13.94,13.94,0,0,0-4,4.81,18.72,18.72,0,0,0-1.5,6.78L141,43.74q1.47-4.47,1.48-18.73a31.08,31.08,0,0,0-1.2-9.84,17.05,17.05,0,0,0-4.37-6.49c0-1.11.86-1.92,2.57-2.44A8.46,8.46,0,0,1,141.75,6c3,0,5.54,1.61,7.59,4.84.09-.13.21-.3.34-.51a12.06,12.06,0,0,1,1-1.17,14.37,14.37,0,0,1,1.54-1.5A7.49,7.49,0,0,1,156.7,6a7.26,7.26,0,0,1,3.52.69c.81.46,1.28.91,1.4,1.34l.19.69a16.83,16.83,0,0,0-4.37,6.49,28,28,0,0,0-1.2,9.06,64.55,64.55,0,0,0,.51,9.09,18.93,18.93,0,0,0,1.24,5,11.15,11.15,0,0,0,1.49,2.44,17.47,17.47,0,0,0,1.27,1.33,1.28,1.28,0,0,1,.51.9,1.25,1.25,0,0,1-.51.89,13.42,13.42,0,0,0-1.27,1.41A12.54,12.54,0,0,0,158,47.83q-1.76,3.83-1.75,11.59t1.2,11.32a16.68,16.68,0,0,0,4.37,6.63c0,1.1-.86,1.93-2.58,2.48a10,10,0,0,1-2.69.28,6.32,6.32,0,0,1-3.61-1.34,10.79,10.79,0,0,1-2.76-2.62l-.83-1.33a8.52,8.52,0,0,1-1.1,1.61,13.72,13.72,0,0,1-1.75,1.84,6.69,6.69,0,0,1-4.12,1.84,11,11,0,0,1-2.88-.28,4,4,0,0,1-1.47-.69,3.24,3.24,0,0,1-1.1-1.79,15.33,15.33,0,0,0,3.93-5.25,22.71,22.71,0,0,0,1.54-7.36L126.29,41.9Q126,47.56,126,57.35t1.2,13.37a16.71,16.71,0,0,0,4.37,6.65c0,1.13-.86,2-2.58,2.48a8,8,0,0,1-2.25.28Q122.23,80.13,119.16,74.84Z"/><path class="cls-1" d="M192.59,26q0-21.15,21-21.16,8.61,0,13.71,4.65,4.32,3.95,4.33,11.5,0,10.67,3.58,15.09a1.75,1.75,0,0,1-.89,1,3.17,3.17,0,0,1-1.68.46,8.9,8.9,0,0,1-1.75-.16,9.57,9.57,0,0,1-1.5-.41A10.68,10.68,0,0,1,227,35.68c-.34-.24-.65-.49-.94-.73s-.55-.48-.76-.69-.39-.41-.53-.58-.25-.3-.32-.39-.17-.06-.26.09a8.31,8.31,0,0,1-.62.83,9.51,9.51,0,0,1-2,1.61,5.13,5.13,0,0,1-2.81,1,13.47,13.47,0,0,1-2.11-.14,6.14,6.14,0,0,1-1.34-.37,4.55,4.55,0,0,1-.89-.53,2.83,2.83,0,0,1-.58-.55,2.84,2.84,0,0,1-.41-1.29,10.7,10.7,0,0,1,1.24-2.51q3.72-6.57,3.73-10.12,0-5.65-2.4-7a6.35,6.35,0,0,0-2.92-.55,6.12,6.12,0,0,0-3.26.85,4.86,4.86,0,0,0-2,2.5,20.81,20.81,0,0,0-1.06,7.39,48.8,48.8,0,0,0,.55,8,19.51,19.51,0,0,0,1.34,4.94,14.31,14.31,0,0,0,1.54,2.65,17,17,0,0,0,1.31,1.56,1.6,1.6,0,0,1,.55,1,1.2,1.2,0,0,1-.5.83,11.78,11.78,0,0,0-1.27,1.35,12,12,0,0,0-1.5,2.49Q207,51,207,59.65v2.53q0,5.94.43,7.07c.29.75.53,1.35.72,1.81a2.77,2.77,0,0,0,.64,1,7.08,7.08,0,0,0,.87.67,3.85,3.85,0,0,0,2.4.64,4.2,4.2,0,0,0,2.6-.78,5.09,5.09,0,0,0,1.54-1.82,11.63,11.63,0,0,0,.83-2.69,39.25,39.25,0,0,0,.36-6.07,18.91,18.91,0,0,0-.82-6.21,10.41,10.41,0,0,0-3.36-4.37c0-.8.64-1.4,1.93-1.8a7.8,7.8,0,0,1,2.16-.23,8.13,8.13,0,0,1,3.15.74A9.78,9.78,0,0,1,223,51.65l.78.74a12.1,12.1,0,0,1,3.45-2.08,10.33,10.33,0,0,1,3.91-.87,5.58,5.58,0,0,1,2.69.51A2.35,2.35,0,0,1,235,51.47a9.24,9.24,0,0,0-3,4,25,25,0,0,0-.73,7.23,21.32,21.32,0,0,0,1.26,8.07,16,16,0,0,0,4.58,5.82,2.86,2.86,0,0,1-1.75,2.53,7.72,7.72,0,0,1-3.84,1,7.58,7.58,0,0,1-4.12-1.29,9.91,9.91,0,0,1-3.31-3.59,15.85,15.85,0,0,1-13.59,6.9q-8.64,0-13.28-5.34t-4.64-16.74q0-12.37-4.47-16.2a1.25,1.25,0,0,1-.5-.87,1.19,1.19,0,0,1,.5-.85,12.65,12.65,0,0,0,1.25-1.27,10.66,10.66,0,0,0,1.47-2.3Q192.58,35.09,192.59,26Z"/><path class="cls-1" d="M282.44,75.3Q280,80.13,275,80.13a7,7,0,0,1-3.59-.65,5.63,5.63,0,0,1-1.89-2.07,13.4,13.4,0,0,0,2.9-8.88,26.76,26.76,0,0,0-.62-6.81q-.61-2.16-1.38-4.78t-1.4-5.11h-.32l-10.54.05c-.18.77-.51,2-1,3.82s-.78,3.13-1,4a35.45,35.45,0,0,0-.92,8,14,14,0,0,0,3.36,9.7,1.43,1.43,0,0,0-.1.28,3.11,3.11,0,0,1-.34.67,4.74,4.74,0,0,1-.67.85,3.52,3.52,0,0,1-2.46.92,5.89,5.89,0,0,1-2.53-.51,5,5,0,0,1-1.68-1.19A8,8,0,0,1,249,75.3a20.06,20.06,0,0,1-4.61,3.35,10.1,10.1,0,0,1-4.69,1.48c-2.15,0-3.22-.8-3.22-2.4v-.32A23,23,0,0,0,242.27,71a43.92,43.92,0,0,0,3.82-10l2.39-8.42a13.36,13.36,0,0,0-5,2.39c-.31,0-.59-.23-.85-.69a3.3,3.3,0,0,1-.39-1.65c0-1.44,1.07-2.72,3.22-3.82a4.2,4.2,0,0,1-1.66-1.15,4.12,4.12,0,0,1-1.56-2.51,5.92,5.92,0,0,1,.13-1.47,3.58,3.58,0,0,1,.28-.71,1.48,1.48,0,0,1,.83-.56,14.62,14.62,0,0,0,7.08,2.81l5.34-18.86a39.32,39.32,0,0,0,1.79-10.12,14.09,14.09,0,0,0-2.43-7.6V8.54q0-2.58,5.2-2.58c1.77,0,3.71,1.14,5.79,3.41a17.16,17.16,0,0,1,1.43,1.89,8.53,8.53,0,0,1,5.24-4.74A9.74,9.74,0,0,1,276.09,6a3.64,3.64,0,0,1,2.39.69,4,4,0,0,1,1.2,2.07,27,27,0,0,0-1.34,8.82,42.48,42.48,0,0,0,.83,8.81,51.57,51.57,0,0,0,2.09,7.24,22.13,22.13,0,0,0,2.4,4.95A16.54,16.54,0,0,0,285.75,41c.64.6,1.16,1,1.54,1.33a1.19,1.19,0,0,1,.58.85,1.55,1.55,0,0,1-.37.9c-.25.32-.53.65-.83,1q-1.2,1.38-1.2,5.52a40.15,40.15,0,0,0,3.2,15.48q3.19,7.71,7.52,11.34v.19c0,1.68-1.52,2.53-4.58,2.53S285.5,78.52,282.44,75.3ZM267.58,45.71q-3.74-15.09-4-16.37-1.94,7.81-4,16.37h7.92Z"/><path class="cls-1" d="M310.45,75.3a8.76,8.76,0,0,1-1.12,1.49,12.75,12.75,0,0,1-1.73,1.68,7.64,7.64,0,0,1-4.53,1.66,7,7,0,0,1-3.47-.69q-1.2-.69-1.38-1.38l-.19-.69a15,15,0,0,0,4.3-6.86,31.83,31.83,0,0,0,1.27-9.45,57.16,57.16,0,0,0-.51-8.58,18.58,18.58,0,0,0-1.24-4.79,11.33,11.33,0,0,0-2.76-3.84,1.18,1.18,0,0,1-.5-.87,1.32,1.32,0,0,1,.5-.92,17.43,17.43,0,0,0,1.27-1.41,11.48,11.48,0,0,0,1.49-2.57q1.75-3.87,1.75-11.85t-1.22-11.29A16.41,16.41,0,0,0,298,8.68c0-1.11.85-1.92,2.53-2.44A9.69,9.69,0,0,1,303,6a9.82,9.82,0,0,1,3,.49,10.65,10.65,0,0,1,2.58,1.17,14.77,14.77,0,0,1,3.4,3,4.46,4.46,0,0,1,1.15-1.52,9.52,9.52,0,0,1,2.07-1.48,15.23,15.23,0,0,1,7-1.61c2.61,0,4.56,0,5.87.14a36.59,36.59,0,0,1,3.89.49,20.12,20.12,0,0,1,3.49.92A14.08,14.08,0,0,1,338.43,9a10.17,10.17,0,0,1,2.34,2.12,10.74,10.74,0,0,1,2.42,5.52,17.52,17.52,0,0,0,.94,4.39,8.05,8.05,0,0,0,1.15,2.1A8.12,8.12,0,0,1,346.8,25a1.61,1.61,0,0,1-.46.81c-.31.37-.66.83-1.06,1.38A11.88,11.88,0,0,0,343.42,33a10.55,10.55,0,0,1-2.33,5.94,7.15,7.15,0,0,1-5,2.62,10.65,10.65,0,0,1,7.13,7.68,60.11,60.11,0,0,1,1.52,9.34c.39,4,.78,7,1.15,8.88.82,4.32,2.73,7.44,5.7,9.34a13.91,13.91,0,0,1-10.35,4,9.16,9.16,0,0,1-5.94-1.93,11,11,0,0,1-3.47-5A38.66,38.66,0,0,1,330.21,67c-.38-2.47-.66-5-.82-7.43s-.39-4.76-.67-6.81q-1-6.94-4.69-6.95h-6.17V60.11A37.69,37.69,0,0,0,319,70.53a17.69,17.69,0,0,0,4,6.84c0,1.13-.85,2-2.53,2.48a8.65,8.65,0,0,1-2.33.28,7,7,0,0,1-2.59-.51,8.71,8.71,0,0,1-2.17-1.19A12.47,12.47,0,0,1,310.45,75.3Zm16.66-59.58a5.26,5.26,0,0,0-3.29-1,11.47,11.47,0,0,0-4,.73c-1.33.49-2,1-2,1.57V38.68q5.43,0,8-1.22a4.11,4.11,0,0,0,2.57-3.94V17.93A2.8,2.8,0,0,0,327.11,15.72Z"/><path class="cls-1" d="M353.75,77.37q5.56-5.16,5.56-16.34,0-9.62-1.74-13.34a10.78,10.78,0,0,0-2.21-3.36c-.71-.61-1.06-1.06-1.06-1.35a1.36,1.36,0,0,1,.5-.92,17.43,17.43,0,0,0,1.27-1.41,11.47,11.47,0,0,0,1.5-2.57q1.74-3.87,1.74-11.85t-1.22-11.29a16.49,16.49,0,0,0-4.34-6.26c0-1.11.84-1.92,2.53-2.44A11.15,11.15,0,0,1,359.06,6a8,8,0,0,1,3.82,1.15,10.33,10.33,0,0,1,3,2.31l.92,1.15Q370.8,6,382.22,6q8.65,0,13,4.05,5.58,5.21,5.57,16,0,12.33,3.59,16.11a1.29,1.29,0,0,1,.41.87,1.23,1.23,0,0,1-.41.85,8.62,8.62,0,0,0-1,1.36,15,15,0,0,0-1.17,2.48q-1.42,3.73-1.43,13.16T396,75.2q-4.86,4.93-13.37,4.93-11.31,0-15.82-5.29a11.24,11.24,0,0,1-5.39,4.73,8.32,8.32,0,0,1-3.13.56,5.81,5.81,0,0,1-2.94-.69q-1.2-.69-1.38-1.38Zm31.88-55.58q0-7.08-5.61-7.08-5,0-6,3.26a16.93,16.93,0,0,0-.46,4.72q0,3.28.18,6.67a51.44,51.44,0,0,0,.51,5.38,34.93,34.93,0,0,0,.69,3.43,10.28,10.28,0,0,0,.73,2.12c.25.46.48.84.69,1.15a3.2,3.2,0,0,1,.69,1.51,2.64,2.64,0,0,1-.55,1.34,17.91,17.91,0,0,0-1.2,2.16q-1.74,3.54-1.74,14.72c0,4.63.46,7.52,1.38,8.65a5.66,5.66,0,0,0,4.64,1.84c2.06,0,3.38-.32,4-1a9.16,9.16,0,0,0,1.27-1.64A6.22,6.22,0,0,0,385.4,67a53.59,53.59,0,0,0,.23-5.61v-.6q0-10.95-1.75-14.4a23.35,23.35,0,0,0-1.2-2.09,2.88,2.88,0,0,1-.55-1.34,1.55,1.55,0,0,1,.37-1,10.62,10.62,0,0,0,.88-1.48,16.42,16.42,0,0,0,1-2.78Q385.62,33.35,385.63,21.79Z"/><path class="cls-1" d="M445.58,38.49c0,1.66-1.08,3.13-3.22,4.42a3.89,3.89,0,0,1,1.7,1.24,5,5,0,0,1,1.52,3c0,1.5-.31,2.35-.92,2.53l-.33.09q-4.14-2.71-13.11-2.71l-2,20.2c0,2,.61,3.29,1.84,3.81a9.56,9.56,0,0,0,3.61.6A3.93,3.93,0,0,0,438,70a6.92,6.92,0,0,0,1.22-4.16A9.87,9.87,0,0,0,436,58.55a2.43,2.43,0,0,1,2.71-1.84q3.91,0,5.89,2l.69.69a8.38,8.38,0,0,1,6.08-2.67,4.27,4.27,0,0,1,2.14.46,2.35,2.35,0,0,1,1.08,1.38q-3.74,2.94-3.73,9.5t4.19,10c0,.8-.65,1.4-1.94,1.8a5.78,5.78,0,0,1-1.7.23q-4.55,0-7.82-4.37A10.88,10.88,0,0,1,438.67,79a15.84,15.84,0,0,1-5.17,1.11,14.39,14.39,0,0,1-3.31-.3,10.58,10.58,0,0,1-2.17-.76,13.47,13.47,0,0,1-1.77-1,13,13,0,0,1-1.42-1.12,15.27,15.27,0,0,1-1.89-2,11.18,11.18,0,0,1-5.7,4.69,8.9,8.9,0,0,1-3.23.56,5.93,5.93,0,0,1-3-.69,2.73,2.73,0,0,1-1.38-1.38l-.18-.69a9.93,9.93,0,0,0,3-2.46c.52-.76.91-1.34,1.17-1.75a6.09,6.09,0,0,0,.67-1.91c.19-.86.32-1.56.42-2.1a22.64,22.64,0,0,0,.2-2.71c0-1.27.07-2.31.07-3.11V59.47q0-11.78-4.51-15.69A1.1,1.1,0,0,1,410,43a1.25,1.25,0,0,1,.5-.87,17.47,17.47,0,0,0,1.27-1.33,11.15,11.15,0,0,0,1.49-2.44Q415,34.58,415,26.64t-1.22-11.45a16.38,16.38,0,0,0-4.35-6.51c0-1.11.86-1.92,2.58-2.44A11,11,0,0,1,414.8,6a7.66,7.66,0,0,1,4,1.34,11.37,11.37,0,0,1,3.1,2.62l1,1.34Q427.17,6,432.6,6a17.64,17.64,0,0,1,6,1.13,11.06,11.06,0,0,1,4.89,3.29Q446.81,6,451.33,6a4.86,4.86,0,0,1,2.43.53A2.48,2.48,0,0,1,455,8.08a10,10,0,0,0-3.24,4,13.79,13.79,0,0,0-1,5.43q0,5.7,3.73,8.51a2.13,2.13,0,0,1-1,1.26,4.38,4.38,0,0,1-2.35.53,8.88,8.88,0,0,1-5.22-1.93l-.69-.69a8.29,8.29,0,0,1-6,2.62,4.38,4.38,0,0,1-2.16-.46A2.28,2.28,0,0,1,435.91,26a9,9,0,0,0,3.27-6.9c0-2.92-1.66-4.37-5-4.37s-5,1-5,3.17v.41l2,20.57a42.67,42.67,0,0,0,8-.58,13.51,13.51,0,0,0,5.13-2.09c.31,0,.59.22.85.67A3.17,3.17,0,0,1,445.58,38.49Z"/><path class="cls-1" d="M471.71,74.84q-3.18,5.28-7.59,5.29a6.68,6.68,0,0,1-3.29-.69c-.82-.46-1.28-.92-1.41-1.38l-.18-.69a16.71,16.71,0,0,0,4.37-6.65,29.05,29.05,0,0,0,1.2-9.11,60.89,60.89,0,0,0-.51-8.86,19.94,19.94,0,0,0-1.24-4.92,12.08,12.08,0,0,0-1.5-2.55,13.53,13.53,0,0,0-1.26-1.41,1.25,1.25,0,0,1-.51-.89,1.28,1.28,0,0,1,.51-.9,17.68,17.68,0,0,0,1.26-1.33,10.77,10.77,0,0,0,1.5-2.44q1.74-3.73,1.75-11.73t-1.2-11.41a16.94,16.94,0,0,0-4.37-6.49c0-1.07.86-1.89,2.58-2.44a8.56,8.56,0,0,1,2.3-.28q4.5,0,7.59,4.84a8.54,8.54,0,0,1,1.13-1.5,12.17,12.17,0,0,1,1.72-1.68A7.64,7.64,0,0,1,479.09,6a7.09,7.09,0,0,1,3.48.69A2.8,2.8,0,0,1,484,8l.18.69a14.09,14.09,0,0,0-4,4.81,18.73,18.73,0,0,0-1.49,6.78l14.95,23.47Q495,39.27,495,25a31.43,31.43,0,0,0-1.19-9.84,17.05,17.05,0,0,0-4.37-6.49c0-1.11.85-1.92,2.57-2.44A8.46,8.46,0,0,1,494.3,6q4.5,0,7.59,4.84l.34-.51a10.68,10.68,0,0,1,1-1.17,14.37,14.37,0,0,1,1.54-1.5A7.47,7.47,0,0,1,509.25,6a7.26,7.26,0,0,1,3.52.69c.81.46,1.28.91,1.4,1.34l.19.69A16.83,16.83,0,0,0,510,15.17a28,28,0,0,0-1.2,9.06,66.36,66.36,0,0,0,.5,9.09,19.26,19.26,0,0,0,1.25,5A11.15,11.15,0,0,0,512,40.75a17.47,17.47,0,0,0,1.27,1.33,1.3,1.3,0,0,1,.5.9,1.26,1.26,0,0,1-.5.89A13.42,13.42,0,0,0,512,45.28a12.54,12.54,0,0,0-1.49,2.55q-1.76,3.83-1.75,11.59T510,70.74a16.68,16.68,0,0,0,4.37,6.63c0,1.1-.86,1.93-2.58,2.48a10,10,0,0,1-2.69.28,6.3,6.3,0,0,1-3.61-1.34,10.79,10.79,0,0,1-2.76-2.62l-.83-1.33a8.75,8.75,0,0,1-1.11,1.61A13.11,13.11,0,0,1,499,78.29a6.71,6.71,0,0,1-4.12,1.84,10.93,10.93,0,0,1-2.88-.28,4,4,0,0,1-1.47-.69,3.24,3.24,0,0,1-1.1-1.79,15.33,15.33,0,0,0,3.93-5.25,22.71,22.71,0,0,0,1.54-7.36L478.84,41.9q-.29,5.66-.28,15.45t1.2,13.37a16.71,16.71,0,0,0,4.37,6.65c0,1.13-.86,2-2.58,2.48a8,8,0,0,1-2.25.28Q474.79,80.13,471.71,74.84Z"/><path class="cls-2" d="M31.08,58.64a4.59,4.59,0,0,1-.36-2c0-.84.72-1.8,2.18-2.87a10.34,10.34,0,0,1,6.23-1.61l1.16,0a9.89,9.89,0,0,1-.6-3.84,8.92,8.92,0,0,1,1.49-4.83,4.69,4.69,0,0,1,4.17-2.37,10.09,10.09,0,0,0-.28,2.51,7.52,7.52,0,0,0,.78,3.1,14.51,14.51,0,0,0,1.89,3.09c.73.92,1.47,1.87,2.21,2.85a12.69,12.69,0,0,1,2.62,7.59,15.76,15.76,0,0,1-1.73,7.34,16.38,16.38,0,0,1-4.53,5.5A21.76,21.76,0,0,1,32.83,77.6a18.33,18.33,0,0,1-9.38-2.46,15,15,0,0,1-6.31-7.25,31.72,31.72,0,0,1-9.7,8.65A7.12,7.12,0,0,1,4.17,77.6a3.36,3.36,0,0,1-2.35-.95,2.75,2.75,0,0,1-1-2A4.51,4.51,0,0,1,1,73q4.14-3.36,10-13.67A57.46,57.46,0,0,0,15.56,49a32.77,32.77,0,0,0,1.86-10.15,5.29,5.29,0,0,0-.58-2.58,5.46,5.46,0,0,1-.57-1.22c0-.1.42-.47,1.26-1.1a35.12,35.12,0,0,0,3-2.6,41.87,41.87,0,0,0,3.57-3.82,19.81,19.81,0,0,0,3.06-5.38,19,19,0,0,0,1.26-7,7.76,7.76,0,0,0-2.44-6,7.73,7.73,0,0,0-5.38-2.26,5.47,5.47,0,0,0-4.49,1.89,6.81,6.81,0,0,0-1.54,4.41A6.83,6.83,0,0,0,16,17.58a4.15,4.15,0,0,0,3.31,1.82,10.21,10.21,0,0,0,2.9-.32,4,4,0,0,1,.37,1.81c0,.73-.65,1.53-1.93,2.42a9.77,9.77,0,0,1-5.57,1.33L14,24.6a9.89,9.89,0,0,1,.6,3.84,8.94,8.94,0,0,1-1.5,4.83,4.66,4.66,0,0,1-4.16,2.37,10.93,10.93,0,0,0,.27-2.58,8.62,8.62,0,0,0-.78-3.31,16.25,16.25,0,0,0-1.88-3.33c-.74-1-1.48-2-2.21-3.06a14,14,0,0,1-2.62-8A10.81,10.81,0,0,1,4.54,7.88a17.64,17.64,0,0,1,7.11-4.81A25.93,25.93,0,0,1,21,1.46,19.84,19.84,0,0,1,30.3,3.69a11.9,11.9,0,0,1,5.89,6.6A31.91,31.91,0,0,1,45.9,2.42a7.66,7.66,0,0,1,3.26-1,3.33,3.33,0,0,1,2.35.94,2.77,2.77,0,0,1,1,2,4.3,4.3,0,0,1-.23,1.63Q48.2,9.14,42.4,18.89a53.84,53.84,0,0,0-4.46,9.85,30.46,30.46,0,0,0-1.84,9.8,8.56,8.56,0,0,0,1.06,3.73,12.09,12.09,0,0,1-2.28,2.16A32,32,0,0,0,31,48.27a41.19,41.19,0,0,0-3,4.07,21.14,21.14,0,0,0-3.18,11.41,7.44,7.44,0,0,0,2.53,6,8.7,8.7,0,0,0,5.73,2.11,6.05,6.05,0,0,0,6.6-6.39,8.09,8.09,0,0,0-1.65-5,5.59,5.59,0,0,0-4.74-2.21A9.7,9.7,0,0,0,31.08,58.64Z"/><path class="cls-2" d="M91.44,34q0,2.49-3.22,4.42a3.86,3.86,0,0,1,1.71,1.24,5,5,0,0,1,1.51,3c0,1.51-.3,2.35-.92,2.53l-.32.1q-4.14-2.71-13.11-2.72l-2,20.2c0,2,.61,3.3,1.84,3.82a9.57,9.57,0,0,0,3.61.59,3.92,3.92,0,0,0,3.36-1.68,6.87,6.87,0,0,0,1.21-4.16A9.86,9.86,0,0,0,81.83,54a2.43,2.43,0,0,1,2.71-1.84q3.92,0,5.89,2l.69.69a8.36,8.36,0,0,1,6.07-2.67,4.36,4.36,0,0,1,2.14.46A2.32,2.32,0,0,1,100.42,54q-3.73,3-3.73,9.5t4.19,10.06c0,.79-.65,1.39-1.94,1.79a5.83,5.83,0,0,1-1.7.23q-4.56,0-7.82-4.37a11,11,0,0,1-4.88,3.27,16.05,16.05,0,0,1-5.17,1.1,14.55,14.55,0,0,1-3.32-.3,10.7,10.7,0,0,1-2.16-.76,13.89,13.89,0,0,1-1.77-1,14.3,14.3,0,0,1-1.43-1.13,16.49,16.49,0,0,1-1.88-2,11.21,11.21,0,0,1-5.71,4.69,8.8,8.8,0,0,1-3.22.55,5.93,5.93,0,0,1-3-.69q-1.2-.69-1.38-1.38l-.18-.69a9.93,9.93,0,0,0,3-2.46c.52-.75.91-1.34,1.17-1.75a6,6,0,0,0,.67-1.91c.18-.86.32-1.56.41-2.09a22.3,22.3,0,0,0,.21-2.72c0-1.27.07-2.3.07-3.1V55q0-11.77-4.51-15.69a1.1,1.1,0,0,1-.5-.82,1.25,1.25,0,0,1,.5-.88,15.75,15.75,0,0,0,1.27-1.33A10.91,10.91,0,0,0,59.1,33.8q1.76-3.72,1.75-11.66T59.63,10.68a16.51,16.51,0,0,0-4.35-6.51c0-1.1.86-1.91,2.58-2.44a11.06,11.06,0,0,1,2.81-.27,7.58,7.58,0,0,1,4,1.33,11.46,11.46,0,0,1,3.11,2.62l1,1.34Q73,1.46,78.47,1.46a17.57,17.57,0,0,1,6,1.12,11.18,11.18,0,0,1,4.9,3.29q3.31-4.41,7.82-4.41A4.77,4.77,0,0,1,99.63,2a2.47,2.47,0,0,1,1.2,1.58,9.82,9.82,0,0,0-3.24,4,13.79,13.79,0,0,0-1,5.43q0,5.7,3.73,8.51a2.15,2.15,0,0,1-1,1.27,4.44,4.44,0,0,1-2.34.52,8.81,8.81,0,0,1-5.22-1.93l-.69-.69a8.29,8.29,0,0,1-6,2.62,4.38,4.38,0,0,1-2.16-.46,2.25,2.25,0,0,1-1.11-1.33,9,9,0,0,0,3.27-6.9q0-4.36-5-4.37t-5,3.17v.42l2,20.56a43.77,43.77,0,0,0,8-.57,13.52,13.52,0,0,0,5.13-2.1c.31,0,.59.23.85.67A3.2,3.2,0,0,1,91.44,34Z"/><path class="cls-2" d="M117.58,70.33q-3.18,5.3-7.6,5.29a6.64,6.64,0,0,1-3.28-.69q-1.23-.69-1.41-1.38l-.18-.69a16.75,16.75,0,0,0,4.37-6.65,29,29,0,0,0,1.19-9.11,61,61,0,0,0-.5-8.85,20,20,0,0,0-1.24-4.93,12.08,12.08,0,0,0-1.5-2.55,13.33,13.33,0,0,0-1.26-1.4,1,1,0,0,1,0-1.8,17.76,17.76,0,0,0,1.26-1.33,10.54,10.54,0,0,0,1.5-2.44c1.16-2.48,1.74-6.4,1.74-11.73s-.39-9.14-1.19-11.41a17.13,17.13,0,0,0-4.37-6.49c0-1.07.86-1.88,2.57-2.44a8.64,8.64,0,0,1,2.3-.27q4.51,0,7.6,4.83a8.33,8.33,0,0,1,1.12-1.5,12.75,12.75,0,0,1,1.73-1.68A7.62,7.62,0,0,1,125,1.46a7,7,0,0,1,3.47.69c.8.46,1.26.9,1.38,1.33l.19.69A14.16,14.16,0,0,0,126,9a18.74,18.74,0,0,0-1.49,6.79l15,23.46q1.47-4.47,1.47-18.73a31.43,31.43,0,0,0-1.19-9.84,17,17,0,0,0-4.38-6.49c0-1.1.86-1.91,2.58-2.44a8.43,8.43,0,0,1,2.26-.27q4.5,0,7.59,4.83c.09-.12.2-.29.34-.51a13.09,13.09,0,0,1,1-1.17,13.49,13.49,0,0,1,1.54-1.5,7.45,7.45,0,0,1,4.51-1.65,7.29,7.29,0,0,1,3.52.69c.81.46,1.28.9,1.4,1.33l.18.69a17.13,17.13,0,0,0-4.37,6.49,28,28,0,0,0-1.19,9.06,66.36,66.36,0,0,0,.5,9.09,18.86,18.86,0,0,0,1.25,5,10.55,10.55,0,0,0,1.49,2.44,15.75,15.75,0,0,0,1.27,1.33,1.06,1.06,0,0,1,0,1.8,11.67,11.67,0,0,0-2.76,4q-1.75,3.82-1.75,11.6t1.19,11.31a16.76,16.76,0,0,0,4.37,6.63c0,1.1-.86,1.93-2.57,2.48a10,10,0,0,1-2.69.28,6.33,6.33,0,0,1-3.62-1.33,11.15,11.15,0,0,1-2.76-2.63l-.82-1.33a8.94,8.94,0,0,1-1.11,1.61,12.08,12.08,0,0,1-1.75,1.84,6.61,6.61,0,0,1-4.11,1.84,10.88,10.88,0,0,1-2.88-.28,4,4,0,0,1-1.47-.69,3.26,3.26,0,0,1-1.11-1.79,15.27,15.27,0,0,0,3.94-5.25,23,23,0,0,0,1.54-7.36l-16.1-22.86q-.28,5.65-.28,15.46t1.2,13.36A16.54,16.54,0,0,0,130,72.86c0,1.13-.86,2-2.58,2.48a8,8,0,0,1-2.25.28Q120.66,75.62,117.58,70.33Z"/><path class="cls-2" d="M191,21.52Q191,.36,212,.35q8.59,0,13.71,4.65,4.32,4,4.32,11.5,0,10.68,3.59,15.09a1.74,1.74,0,0,1-.9,1,3.12,3.12,0,0,1-1.68.46,8.86,8.86,0,0,1-1.74-.16,8.13,8.13,0,0,1-1.5-.41,10.75,10.75,0,0,1-1.29-.6,11.43,11.43,0,0,1-1.12-.71c-.34-.25-.66-.49-.95-.74s-.54-.47-.76-.69-.39-.4-.53-.57-.24-.3-.32-.39-.16-.07-.25.09a9.71,9.71,0,0,1-.62.83,10.2,10.2,0,0,1-2,1.61,5.22,5.22,0,0,1-2.81,1,13.61,13.61,0,0,1-2.12-.14,5.11,5.11,0,0,1-1.33-.37,4.36,4.36,0,0,1-.9-.53,2.74,2.74,0,0,1-.57-.55,1.69,1.69,0,0,1-.28-.57,2.13,2.13,0,0,1-.14-.72,11.2,11.2,0,0,1,1.25-2.51q3.72-6.57,3.72-10.12,0-5.65-2.39-7a6.38,6.38,0,0,0-2.92-.55,6.18,6.18,0,0,0-3.27.85,4.94,4.94,0,0,0-2,2.51A21,21,0,0,0,205.13,20a48.8,48.8,0,0,0,.55,8A20.24,20.24,0,0,0,207,32.93a15.13,15.13,0,0,0,1.54,2.64c.51.66.95,1.18,1.32,1.57a1.61,1.61,0,0,1,.55,1,1.18,1.18,0,0,1-.51.83,10.52,10.52,0,0,0-1.26,1.36,11.63,11.63,0,0,0-1.5,2.48q-1.76,3.73-1.75,12.38v2.53c0,4,.15,6.31.44,7.06l.71,1.82a2.85,2.85,0,0,0,.65,1,5.83,5.83,0,0,0,.87.67,3.82,3.82,0,0,0,2.39.64,4.2,4.2,0,0,0,2.6-.78,5,5,0,0,0,1.54-1.82,10.6,10.6,0,0,0,.83-2.69,37.72,37.72,0,0,0,.37-6.07,18.87,18.87,0,0,0-.83-6.21A10.3,10.3,0,0,0,211.61,47c0-.8.65-1.4,1.93-1.8a7.93,7.93,0,0,1,2.17-.23,8.13,8.13,0,0,1,3.15.74,9.53,9.53,0,0,1,2.55,1.47l.78.74a11.8,11.8,0,0,1,3.46-2.07,10.17,10.17,0,0,1,3.91-.88,5.6,5.6,0,0,1,2.69.51A2.4,2.4,0,0,1,233.42,47a9.26,9.26,0,0,0-3,4,24.84,24.84,0,0,0-.74,7.22A21.27,21.27,0,0,0,231,66.3a15.85,15.85,0,0,0,4.58,5.82,2.87,2.87,0,0,1-1.75,2.53,7.77,7.77,0,0,1-3.84,1,7.58,7.58,0,0,1-4.12-1.29,9.83,9.83,0,0,1-3.31-3.59,15.88,15.88,0,0,1-13.6,6.9q-8.62,0-13.27-5.33T191,55.56q0-12.37-4.46-16.19a1.26,1.26,0,0,1-.51-.88,1.19,1.19,0,0,1,.51-.85,13.61,13.61,0,0,0,1.24-1.26,10.92,10.92,0,0,0,1.47-2.3Q191,30.59,191,21.52Z"/><path class="cls-2" d="M280.85,70.79q-2.43,4.83-7.4,4.83a7.09,7.09,0,0,1-3.59-.64A5.79,5.79,0,0,1,268,72.91a13.49,13.49,0,0,0,2.9-8.88,27.13,27.13,0,0,0-.62-6.81q-.63-2.16-1.38-4.79t-1.41-5.1h-.32l-10.53,0c-.19.77-.51,2-1,3.82s-.78,3.13-1,4.05a36,36,0,0,0-.92,8,14.08,14.08,0,0,0,3.36,9.71,1.39,1.39,0,0,0-.09.27,2.89,2.89,0,0,1-.34.67,5.24,5.24,0,0,1-.67.85,3.56,3.56,0,0,1-2.46.92,5.86,5.86,0,0,1-2.53-.51,4.89,4.89,0,0,1-1.68-1.19,8.07,8.07,0,0,1-1.89-3.13,19.72,19.72,0,0,1-4.6,3.36,10.23,10.23,0,0,1-4.69,1.47c-2.15,0-3.22-.8-3.22-2.39v-.32a23.38,23.38,0,0,0,5.75-6.38,43.92,43.92,0,0,0,3.82-10l2.39-8.42a13.35,13.35,0,0,0-5,2.4c-.3,0-.59-.23-.85-.69a3.34,3.34,0,0,1-.39-1.66c0-1.44,1.08-2.71,3.22-3.82a4.14,4.14,0,0,1-1.65-1.15,4.1,4.1,0,0,1-1.57-2.51,5.82,5.82,0,0,1,.14-1.47,2.66,2.66,0,0,1,.28-.71,1.39,1.39,0,0,1,.82-.55,14.79,14.79,0,0,0,7.09,2.8l5.34-18.86a39.76,39.76,0,0,0,1.79-10.12,14,14,0,0,0-2.44-7.59V4q0-2.57,5.2-2.57,2.67,0,5.8,3.4a17.18,17.18,0,0,1,1.42,1.89A8.53,8.53,0,0,1,271.33,2a9.66,9.66,0,0,1,3.17-.55,3.67,3.67,0,0,1,2.4.69,3.89,3.89,0,0,1,1.19,2.07A26.88,26.88,0,0,0,276.76,13a41.74,41.74,0,0,0,.83,8.81,51.57,51.57,0,0,0,2.09,7.24,22,22,0,0,0,2.39,5,17.16,17.16,0,0,0,2.09,2.46c.65.6,1.16,1,1.55,1.34a1.16,1.16,0,0,1,.57.85,1.49,1.49,0,0,1-.37.89,11.92,11.92,0,0,1-.82,1q-1.2,1.38-1.2,5.52a39.9,39.9,0,0,0,3.2,15.48q3.2,7.71,7.52,11.35v.18q0,2.53-4.58,2.53T280.85,70.79ZM266,41.21Q262.27,26.12,262,24.83q-1.94,7.81-4,16.38H266Z"/><path class="cls-2" d="M308.87,70.79a8.59,8.59,0,0,1-1.13,1.49A12.17,12.17,0,0,1,306,74a7.61,7.61,0,0,1-4.53,1.66,7.09,7.09,0,0,1-3.48-.69q-1.2-.69-1.38-1.38l-.18-.69a15.11,15.11,0,0,0,4.3-6.86A32.16,32.16,0,0,0,302,56.55a57.34,57.34,0,0,0-.51-8.58,19,19,0,0,0-1.24-4.79,11.63,11.63,0,0,0-1.5-2.48,13.09,13.09,0,0,0-1.26-1.36,1.19,1.19,0,0,1-.51-.87,1.33,1.33,0,0,1,.51-.92,17.2,17.2,0,0,0,1.26-1.4,11.41,11.41,0,0,0,1.5-2.58C301.43,31,302,27.05,302,21.72s-.41-9.08-1.22-11.29a16.71,16.71,0,0,0-4.35-6.26c0-1.1.84-1.91,2.53-2.44a9.62,9.62,0,0,1,2.46-.27,9.8,9.8,0,0,1,3,.48A10.4,10.4,0,0,1,307,3.11a15.08,15.08,0,0,1,3.41,2.95,4.21,4.21,0,0,1,1.15-1.52,9,9,0,0,1,2.07-1.47,15.05,15.05,0,0,1,7-1.61c2.6,0,4.56,0,5.86.14a36.24,36.24,0,0,1,3.89.48,21.19,21.19,0,0,1,3.5.92,14,14,0,0,1,2.94,1.49,10.91,10.91,0,0,1,4.76,7.64,17.44,17.44,0,0,0,.95,4.39,8.05,8.05,0,0,0,1.15,2.1,7.83,7.83,0,0,1,1.52,1.91,1.68,1.68,0,0,1-.46.8c-.31.37-.66.83-1.06,1.38a11.89,11.89,0,0,0-1.87,5.75,10.52,10.52,0,0,1-2.32,5.94,7.13,7.13,0,0,1-5,2.62,10.64,10.64,0,0,1,7.13,7.68A59.13,59.13,0,0,1,343.19,54q.6,6,1.15,8.88,1.25,6.49,5.71,9.34a13.91,13.91,0,0,1-10.35,4,9.12,9.12,0,0,1-5.94-1.93,11,11,0,0,1-3.47-5,38.12,38.12,0,0,1-1.66-6.79c-.38-2.47-.66-4.94-.83-7.43s-.39-4.75-.67-6.81q-1-6.94-4.69-6.94h-6.16V55.61A38.2,38.2,0,0,0,317.38,66a17.78,17.78,0,0,0,4,6.83c0,1.13-.84,2-2.53,2.48a8.57,8.57,0,0,1-2.32.28,7,7,0,0,1-2.6-.51,8.16,8.16,0,0,1-2.16-1.19A12.12,12.12,0,0,1,308.87,70.79Zm16.65-59.58a5.29,5.29,0,0,0-3.28-1,11.39,11.39,0,0,0-4,.73c-1.34.5-2,1-2,1.57V34.17c3.62,0,6.28-.41,8-1.22A4.08,4.08,0,0,0,326.86,29V13.42A2.83,2.83,0,0,0,325.52,11.21Z"/><path class="cls-2" d="M352.16,72.86q5.56-5.14,5.57-16.33,0-9.62-1.75-13.35a10.42,10.42,0,0,0-2.21-3.35c-.7-.62-1.06-1.07-1.06-1.36a1.33,1.33,0,0,1,.51-.92,17,17,0,0,0,1.27-1.4A11.82,11.82,0,0,0,356,33.57c1.17-2.58,1.75-6.52,1.75-11.85s-.41-9.08-1.22-11.29a16.48,16.48,0,0,0-4.35-6.26c0-1.1.85-1.91,2.53-2.44a11.32,11.32,0,0,1,2.79-.27,7.79,7.79,0,0,1,3.81,1.15,9.89,9.89,0,0,1,3,2.3l.92,1.15q4.05-4.6,15.46-4.6,8.66,0,13,4.05,5.56,5.19,5.57,16,0,12.33,3.59,16.1a1.38,1.38,0,0,1,.41.87,1.28,1.28,0,0,1-.41.85,9.13,9.13,0,0,0-1,1.36,14.18,14.18,0,0,0-1.18,2.48q-1.42,3.74-1.42,13.16T394.37,70.7q-4.85,4.92-13.36,4.92-11.33,0-15.83-5.29a11.19,11.19,0,0,1-5.38,4.74,8.32,8.32,0,0,1-3.13.55,5.76,5.76,0,0,1-2.94-.69q-1.2-.69-1.38-1.38ZM384,17.28q0-7.08-5.61-7.08-5,0-6,3.27a16.85,16.85,0,0,0-.46,4.71c0,2.19.06,4.42.19,6.67s.29,4,.5,5.38.45,2.48.69,3.43a10.19,10.19,0,0,0,.74,2.12,9.94,9.94,0,0,0,.69,1.15,3.19,3.19,0,0,1,.69,1.52,2.74,2.74,0,0,1-.55,1.33,17.91,17.91,0,0,0-1.2,2.16c-1.17,2.37-1.75,7.27-1.75,14.73q0,6.94,1.38,8.64A5.66,5.66,0,0,0,378,67.15c2.05,0,3.38-.32,4-1a8.9,8.9,0,0,0,1.26-1.63,6.32,6.32,0,0,0,.56-2.1,54.1,54.1,0,0,0,.22-5.61v-.6q0-10.95-1.74-14.4c-.43-.83-.83-1.52-1.2-2.09a2.74,2.74,0,0,1-.55-1.34,1.55,1.55,0,0,1,.37-1,11.17,11.17,0,0,0,.87-1.48,15.3,15.3,0,0,0,1-2.78Q384,28.83,384,17.28Z"/><path class="cls-2" d="M444,34q0,2.49-3.22,4.42a3.84,3.84,0,0,1,1.7,1.24,5,5,0,0,1,1.52,3c0,1.51-.31,2.35-.92,2.53l-.32.1q-4.14-2.71-13.11-2.72l-2,20.2c0,2,.62,3.3,1.84,3.82a9.63,9.63,0,0,0,3.62.59,3.89,3.89,0,0,0,3.35-1.68,6.81,6.81,0,0,0,1.22-4.16A9.9,9.9,0,0,0,434.38,54a2.43,2.43,0,0,1,2.71-1.84q3.92,0,5.89,2l.69.69a8.36,8.36,0,0,1,6.07-2.67,4.38,4.38,0,0,1,2.14.46A2.27,2.27,0,0,1,453,54q-3.72,3-3.72,9.5t4.18,10.06c0,.79-.64,1.39-1.93,1.79a5.83,5.83,0,0,1-1.7.23q-4.56,0-7.82-4.37a11,11,0,0,1-4.88,3.27,16.05,16.05,0,0,1-5.17,1.1,14.55,14.55,0,0,1-3.32-.3,10.7,10.7,0,0,1-2.16-.76,13.89,13.89,0,0,1-1.77-1,14.3,14.3,0,0,1-1.43-1.13,15.74,15.74,0,0,1-1.88-2,11.21,11.21,0,0,1-5.71,4.69,8.8,8.8,0,0,1-3.22.55,5.93,5.93,0,0,1-3-.69q-1.2-.69-1.38-1.38l-.18-.69a10.06,10.06,0,0,0,3-2.46c.52-.75.91-1.34,1.17-1.75a6.25,6.25,0,0,0,.67-1.91c.18-.86.32-1.56.41-2.09a24.59,24.59,0,0,0,.21-2.72c0-1.27.07-2.3.07-3.1V55q0-11.77-4.51-15.69a1.11,1.11,0,0,1-.51-.82,1.26,1.26,0,0,1,.51-.88,14.42,14.42,0,0,0,1.26-1.33,10.54,10.54,0,0,0,1.5-2.44q1.74-3.72,1.75-11.66t-1.22-11.46a16.51,16.51,0,0,0-4.35-6.51c0-1.1.86-1.91,2.58-2.44a11,11,0,0,1,2.8-.27,7.59,7.59,0,0,1,4,1.33,11.62,11.62,0,0,1,3.11,2.62l1,1.34Q425.6,1.46,431,1.46a17.57,17.57,0,0,1,6,1.12,11.18,11.18,0,0,1,4.9,3.29q3.31-4.41,7.82-4.41a4.8,4.8,0,0,1,2.44.53,2.5,2.5,0,0,1,1.2,1.58,9.93,9.93,0,0,0-3.25,4,13.8,13.8,0,0,0-.94,5.43q0,5.7,3.73,8.51a2.19,2.19,0,0,1-1,1.27,4.46,4.46,0,0,1-2.34.52,7.66,7.66,0,0,1-3-.64,7.77,7.77,0,0,1-2.21-1.29l-.69-.69a8.25,8.25,0,0,1-6,2.62,4.45,4.45,0,0,1-2.17-.46,2.23,2.23,0,0,1-1.1-1.33,9,9,0,0,0,3.27-6.9q0-4.36-5-4.37t-5,3.17v.42l2,20.56a43.77,43.77,0,0,0,8-.57,13.52,13.52,0,0,0,5.13-2.1c.31,0,.59.23.85.67A3.2,3.2,0,0,1,444,34Z"/><path class="cls-2" d="M470.12,70.33q-3.17,5.3-7.59,5.29a6.7,6.7,0,0,1-3.29-.69c-.81-.46-1.28-.92-1.4-1.38l-.18-.69A16.75,16.75,0,0,0,462,66.21a29.34,29.34,0,0,0,1.19-9.11,62.44,62.44,0,0,0-.5-8.85,20,20,0,0,0-1.25-4.93,11.67,11.67,0,0,0-2.76-4,1.06,1.06,0,0,1,0-1.8A15.75,15.75,0,0,0,460,36.24a10.55,10.55,0,0,0,1.49-2.44c1.17-2.48,1.75-6.4,1.75-11.73s-.4-9.14-1.19-11.41a17.13,17.13,0,0,0-4.37-6.49c0-1.07.85-1.88,2.57-2.44a8.64,8.64,0,0,1,2.3-.27q4.52,0,7.59,4.83a9.11,9.11,0,0,1,1.13-1.5A12.2,12.2,0,0,1,473,3.11a7.62,7.62,0,0,1,4.53-1.65,7,7,0,0,1,3.47.69c.8.46,1.26.9,1.38,1.33l.18.69a14.13,14.13,0,0,0-4,4.81,18.94,18.94,0,0,0-1.5,6.79l15,23.46q1.47-4.47,1.47-18.73a31.08,31.08,0,0,0-1.2-9.84,16.9,16.9,0,0,0-4.37-6.49c0-1.1.86-1.91,2.58-2.44a8.36,8.36,0,0,1,2.25-.27q4.52,0,7.59,4.83a5.32,5.32,0,0,0,.35-.51,13.09,13.09,0,0,1,1-1.17,12.72,12.72,0,0,1,1.54-1.5,7.45,7.45,0,0,1,4.51-1.65,7.22,7.22,0,0,1,3.51.69c.82.46,1.28.9,1.41,1.33l.18.69a17.13,17.13,0,0,0-4.37,6.49,28,28,0,0,0-1.19,9.06,64.79,64.79,0,0,0,.5,9.09,19.33,19.33,0,0,0,1.24,5,10.54,10.54,0,0,0,1.5,2.44,15.91,15.91,0,0,0,1.26,1.33,1,1,0,0,1,0,1.8,12.29,12.29,0,0,0-1.26,1.4,12.08,12.08,0,0,0-1.5,2.55q-1.74,3.82-1.74,11.6t1.19,11.31a16.76,16.76,0,0,0,4.37,6.63c0,1.1-.86,1.93-2.57,2.48a10.08,10.08,0,0,1-2.7.28,6.3,6.3,0,0,1-3.61-1.33,10.8,10.8,0,0,1-2.76-2.63l-.83-1.33a8.21,8.21,0,0,1-1.1,1.61,12.59,12.59,0,0,1-1.75,1.84,6.61,6.61,0,0,1-4.12,1.84,10.85,10.85,0,0,1-2.87-.28,3.87,3.87,0,0,1-1.47-.69,3.21,3.21,0,0,1-1.11-1.79,15.39,15.39,0,0,0,3.94-5.25,23,23,0,0,0,1.54-7.36L477.25,37.39Q477,43,477,52.85t1.19,13.36a16.75,16.75,0,0,0,4.37,6.65c0,1.13-.85,2-2.57,2.48a8,8,0,0,1-2.26.28Q473.21,75.62,470.12,70.33Z"/><path class="cls-3" d="M30.81,58.83a4.46,4.46,0,0,1-.37-2q0-1.28,2.19-2.88a10.37,10.37,0,0,1,6.23-1.61l1.15,0a9.91,9.91,0,0,1-.6-3.85,8.94,8.94,0,0,1,1.5-4.83,4.66,4.66,0,0,1,4.16-2.37,10.64,10.64,0,0,0-.28,2.51A7.44,7.44,0,0,0,45.58,47,15.09,15.09,0,0,0,47.46,50c.74.92,1.47,1.87,2.21,2.85a12.63,12.63,0,0,1,2.62,7.59,15.72,15.72,0,0,1-1.72,7.34A16.29,16.29,0,0,1,46,73.32a21.76,21.76,0,0,1-13.48,4.46,18.34,18.34,0,0,1-9.39-2.46,15,15,0,0,1-6.3-7.25,31.87,31.87,0,0,1-9.71,8.65,7.12,7.12,0,0,1-3.27,1.06,3.3,3.3,0,0,1-2.34-.94,2.75,2.75,0,0,1-1-2,4.3,4.3,0,0,1,.23-1.63q4.14-3.36,10-13.66a56.84,56.84,0,0,0,4.53-10.33A32.77,32.77,0,0,0,17.14,39a5.33,5.33,0,0,0-.57-2.57A5.46,5.46,0,0,1,16,35.25c0-.11.42-.48,1.27-1.11a36.4,36.4,0,0,0,3-2.6,41.65,41.65,0,0,0,3.56-3.81,19.51,19.51,0,0,0,3.06-5.39,18.94,18.94,0,0,0,1.27-7,8,8,0,0,0-7.83-8.25A5.44,5.44,0,0,0,15.88,9a6.76,6.76,0,0,0-1.54,4.42,6.85,6.85,0,0,0,1.42,4.35,4.15,4.15,0,0,0,3.32,1.81A9.83,9.83,0,0,0,22,19.26a4,4,0,0,1,.37,1.82c0,.72-.64,1.52-1.93,2.41a9.75,9.75,0,0,1-5.57,1.34l-1.15,0a9.89,9.89,0,0,1,.6,3.84,9,9,0,0,1-1.49,4.83,4.69,4.69,0,0,1-4.17,2.37,10.31,10.31,0,0,0,.28-2.57,8.66,8.66,0,0,0-.78-3.32A16.83,16.83,0,0,0,6.24,26.6c-.74-1-1.47-2-2.21-3.06a14,14,0,0,1-2.62-8A10.82,10.82,0,0,1,4.26,8.06a17.75,17.75,0,0,1,7.11-4.81,26.21,26.21,0,0,1,9.32-1.61A19.9,19.9,0,0,1,30,3.87a11.88,11.88,0,0,1,5.88,6.6,31.71,31.71,0,0,1,9.71-7.86,7.59,7.59,0,0,1,3.27-1,3.35,3.35,0,0,1,2.34.94,2.76,2.76,0,0,1,1,2A4.51,4.51,0,0,1,52,6.24q-4.1,3.09-9.89,12.84a53.45,53.45,0,0,0-4.47,9.84,30.79,30.79,0,0,0-1.84,9.8,8.49,8.49,0,0,0,1.06,3.73,12.09,12.09,0,0,1-2.28,2.16,32.58,32.58,0,0,0-3.86,3.84,40.84,40.84,0,0,0-3,4.07A21.24,21.24,0,0,0,24.6,63.93a7.41,7.41,0,0,0,2.53,6,8.67,8.67,0,0,0,5.72,2.12,6.07,6.07,0,0,0,6.61-6.4,8.1,8.1,0,0,0-1.66-5,5.57,5.57,0,0,0-4.74-2.21A9.25,9.25,0,0,0,30.81,58.83Z"/><path class="cls-3" d="M30.81,58.83a4.46,4.46,0,0,1-.37-2q0-1.28,2.19-2.88a10.37,10.37,0,0,1,6.23-1.61l1.15,0a9.91,9.91,0,0,1-.6-3.85,8.94,8.94,0,0,1,1.5-4.83,4.66,4.66,0,0,1,4.16-2.37,10.64,10.64,0,0,0-.28,2.51A7.44,7.44,0,0,0,45.58,47,15.09,15.09,0,0,0,47.46,50c.74.92,1.47,1.87,2.21,2.85a12.63,12.63,0,0,1,2.62,7.59,15.72,15.72,0,0,1-1.72,7.34A16.29,16.29,0,0,1,46,73.32a21.76,21.76,0,0,1-13.48,4.46,18.34,18.34,0,0,1-9.39-2.46,15,15,0,0,1-6.3-7.25,31.87,31.87,0,0,1-9.71,8.65,7.12,7.12,0,0,1-3.27,1.06,3.3,3.3,0,0,1-2.34-.94,2.75,2.75,0,0,1-1-2,4.3,4.3,0,0,1,.23-1.63q4.14-3.36,10-13.66a56.84,56.84,0,0,0,4.53-10.33A32.77,32.77,0,0,0,17.14,39a5.33,5.33,0,0,0-.57-2.57A5.46,5.46,0,0,1,16,35.25c0-.11.42-.48,1.27-1.11a36.4,36.4,0,0,0,3-2.6,41.65,41.65,0,0,0,3.56-3.81,19.51,19.51,0,0,0,3.06-5.39,18.94,18.94,0,0,0,1.27-7,8,8,0,0,0-7.83-8.25A5.44,5.44,0,0,0,15.88,9a6.76,6.76,0,0,0-1.54,4.42,6.85,6.85,0,0,0,1.42,4.35,4.15,4.15,0,0,0,3.32,1.81A9.83,9.83,0,0,0,22,19.26a4,4,0,0,1,.37,1.82c0,.72-.64,1.52-1.93,2.41a9.75,9.75,0,0,1-5.57,1.34l-1.15,0a9.89,9.89,0,0,1,.6,3.84,9,9,0,0,1-1.49,4.83,4.69,4.69,0,0,1-4.17,2.37,10.31,10.31,0,0,0,.28-2.57,8.66,8.66,0,0,0-.78-3.32A16.83,16.83,0,0,0,6.24,26.6c-.74-1-1.47-2-2.21-3.06a14,14,0,0,1-2.62-8A10.82,10.82,0,0,1,4.26,8.06a17.75,17.75,0,0,1,7.11-4.81,26.21,26.21,0,0,1,9.32-1.61A19.9,19.9,0,0,1,30,3.87a11.88,11.88,0,0,1,5.88,6.6,31.71,31.71,0,0,1,9.71-7.86,7.59,7.59,0,0,1,3.27-1,3.35,3.35,0,0,1,2.34.94,2.76,2.76,0,0,1,1,2A4.51,4.51,0,0,1,52,6.24q-4.1,3.09-9.89,12.84a53.45,53.45,0,0,0-4.47,9.84,30.79,30.79,0,0,0-1.84,9.8,8.49,8.49,0,0,0,1.06,3.73,12.09,12.09,0,0,1-2.28,2.16,32.58,32.58,0,0,0-3.86,3.84,40.84,40.84,0,0,0-3,4.07A21.24,21.24,0,0,0,24.6,63.93a7.41,7.41,0,0,0,2.53,6,8.67,8.67,0,0,0,5.72,2.12,6.07,6.07,0,0,0,6.61-6.4,8.1,8.1,0,0,0-1.66-5,5.57,5.57,0,0,0-4.74-2.21A9.25,9.25,0,0,0,30.81,58.83Z"/><path class="cls-3" d="M91.17,34.17c0,1.65-1.08,3.13-3.22,4.41a3.87,3.87,0,0,1,1.7,1.25,5,5,0,0,1,1.52,3c0,1.5-.31,2.34-.92,2.53l-.32.09q-4.14-2.71-13.12-2.72l-2,20.2c0,2,.61,3.3,1.84,3.82a9.6,9.6,0,0,0,3.61.6,3.92,3.92,0,0,0,3.36-1.68,6.93,6.93,0,0,0,1.22-4.17,9.85,9.85,0,0,0-3.27-7.26c.31-1.23,1.21-1.84,2.72-1.84,2.6,0,4.57.66,5.89,2l.69.69a8.37,8.37,0,0,1,6.07-2.66,4.27,4.27,0,0,1,2.14.46,2.25,2.25,0,0,1,1.08,1.38q-3.72,2.94-3.73,9.5t4.19,10.05c0,.8-.64,1.39-1.93,1.79A5.53,5.53,0,0,1,97,75.8q-4.54,0-7.82-4.37a11,11,0,0,1-4.87,3.27,15.84,15.84,0,0,1-5.18,1.1,14.45,14.45,0,0,1-3.31-.3,10.7,10.7,0,0,1-2.16-.76,12.8,12.8,0,0,1-1.77-1,12.1,12.1,0,0,1-1.43-1.13,15.26,15.26,0,0,1-1.89-2,11.19,11.19,0,0,1-5.7,4.69,8.84,8.84,0,0,1-3.22.55,5.91,5.91,0,0,1-3-.69q-1.2-.69-1.38-1.38L55.05,73a9.8,9.8,0,0,0,3-2.46c.52-.75.92-1.33,1.18-1.75a6,6,0,0,0,.66-1.91c.19-.85.33-1.55.42-2.09a24.58,24.58,0,0,0,.21-2.71c0-1.28.06-2.31.06-3.11V55.15q0-11.79-4.5-15.69a1.13,1.13,0,0,1-.51-.83,1.23,1.23,0,0,1,.51-.87c.33-.31.75-.76,1.26-1.34A10.33,10.33,0,0,0,58.83,34q1.74-3.72,1.74-11.66T59.36,10.86A16.73,16.73,0,0,0,55,4.35c0-1.1.86-1.91,2.57-2.43a10.59,10.59,0,0,1,2.81-.28,7.7,7.7,0,0,1,4,1.33A11.45,11.45,0,0,1,67.48,5.6l1,1.33c2.88-3.53,6.14-5.29,9.75-5.29a17.6,17.6,0,0,1,6,1.13,11.16,11.16,0,0,1,4.9,3.29q3.32-4.42,7.82-4.42a4.93,4.93,0,0,1,2.44.53,2.45,2.45,0,0,1,1.19,1.59,9.89,9.89,0,0,0-3.24,4,13.87,13.87,0,0,0-.94,5.43q0,5.71,3.72,8.51a2.11,2.11,0,0,1-1,1.27,4.47,4.47,0,0,1-2.35.53,7.63,7.63,0,0,1-3-.65,8,8,0,0,1-2.21-1.28l-.69-.69a8.32,8.32,0,0,1-6,2.62A4.5,4.5,0,0,1,82.61,23a2.25,2.25,0,0,1-1.1-1.34,9,9,0,0,0,3.26-6.9c0-2.91-1.65-4.37-5-4.37s-5,1.06-5,3.18V14l2,20.57a43.67,43.67,0,0,0,8-.58,13.65,13.65,0,0,0,5.13-2.09c.3,0,.59.22.85.66A3.21,3.21,0,0,1,91.17,34.17Z"/><path class="cls-3" d="M91.17,34.17c0,1.65-1.08,3.13-3.22,4.41a3.87,3.87,0,0,1,1.7,1.25,5,5,0,0,1,1.52,3c0,1.5-.31,2.34-.92,2.53l-.32.09q-4.14-2.71-13.12-2.72l-2,20.2c0,2,.61,3.3,1.84,3.82a9.6,9.6,0,0,0,3.61.6,3.92,3.92,0,0,0,3.36-1.68,6.93,6.93,0,0,0,1.22-4.17,9.85,9.85,0,0,0-3.27-7.26c.31-1.23,1.21-1.84,2.72-1.84,2.6,0,4.57.66,5.89,2l.69.69a8.37,8.37,0,0,1,6.07-2.66,4.27,4.27,0,0,1,2.14.46,2.25,2.25,0,0,1,1.08,1.38q-3.72,2.94-3.73,9.5t4.19,10.05c0,.8-.64,1.39-1.93,1.79A5.53,5.53,0,0,1,97,75.8q-4.54,0-7.82-4.37a11,11,0,0,1-4.87,3.27,15.84,15.84,0,0,1-5.18,1.1,14.45,14.45,0,0,1-3.31-.3,10.7,10.7,0,0,1-2.16-.76,12.8,12.8,0,0,1-1.77-1,12.1,12.1,0,0,1-1.43-1.13,15.26,15.26,0,0,1-1.89-2,11.19,11.19,0,0,1-5.7,4.69,8.84,8.84,0,0,1-3.22.55,5.91,5.91,0,0,1-3-.69q-1.2-.69-1.38-1.38L55.05,73a9.8,9.8,0,0,0,3-2.46c.52-.75.92-1.33,1.18-1.75a6,6,0,0,0,.66-1.91c.19-.85.33-1.55.42-2.09a24.58,24.58,0,0,0,.21-2.71c0-1.28.06-2.31.06-3.11V55.15q0-11.79-4.5-15.69a1.13,1.13,0,0,1-.51-.83,1.23,1.23,0,0,1,.51-.87c.33-.31.75-.76,1.26-1.34A10.33,10.33,0,0,0,58.83,34q1.74-3.72,1.74-11.66T59.36,10.86A16.73,16.73,0,0,0,55,4.35c0-1.1.86-1.91,2.57-2.43a10.59,10.59,0,0,1,2.81-.28,7.7,7.7,0,0,1,4,1.33A11.45,11.45,0,0,1,67.48,5.6l1,1.33c2.88-3.53,6.14-5.29,9.75-5.29a17.6,17.6,0,0,1,6,1.13,11.16,11.16,0,0,1,4.9,3.29q3.32-4.42,7.82-4.42a4.93,4.93,0,0,1,2.44.53,2.45,2.45,0,0,1,1.19,1.59,9.89,9.89,0,0,0-3.24,4,13.87,13.87,0,0,0-.94,5.43q0,5.71,3.72,8.51a2.11,2.11,0,0,1-1,1.27,4.47,4.47,0,0,1-2.35.53,7.63,7.63,0,0,1-3-.65,8,8,0,0,1-2.21-1.28l-.69-.69a8.32,8.32,0,0,1-6,2.62A4.5,4.5,0,0,1,82.61,23a2.25,2.25,0,0,1-1.1-1.34,9,9,0,0,0,3.26-6.9c0-2.91-1.65-4.37-5-4.37s-5,1.06-5,3.18V14l2,20.57a43.67,43.67,0,0,0,8-.58,13.65,13.65,0,0,0,5.13-2.09c.3,0,.59.22.85.66A3.21,3.21,0,0,1,91.17,34.17Z"/><path class="cls-3" d="M117.3,70.51q-3.18,5.3-7.59,5.29a6.68,6.68,0,0,1-3.29-.69c-.81-.46-1.28-.92-1.4-1.38l-.19-.69a16.65,16.65,0,0,0,4.37-6.65,29,29,0,0,0,1.2-9.11,60.84,60.84,0,0,0-.51-8.85,19.81,19.81,0,0,0-1.24-4.92A12.37,12.37,0,0,0,107.16,41a13.13,13.13,0,0,0-1.27-1.4,1.28,1.28,0,0,1-.51-.9,1.25,1.25,0,0,1,.51-.89,17.94,17.94,0,0,0,1.27-1.34A10.68,10.68,0,0,0,108.65,34q1.75-3.72,1.75-11.73t-1.2-11.41a17,17,0,0,0-4.37-6.49q0-1.6,2.58-2.43a8.18,8.18,0,0,1,2.3-.28q4.5,0,7.59,4.83A8.59,8.59,0,0,1,118.43,5a12.17,12.17,0,0,1,1.72-1.68,7.59,7.59,0,0,1,4.53-1.66,7.09,7.09,0,0,1,3.48.69,2.83,2.83,0,0,1,1.38,1.33l.18.69a14.13,14.13,0,0,0-4,4.81A18.57,18.57,0,0,0,124.2,16l15,23.46q1.47-4.45,1.47-18.72a31.45,31.45,0,0,0-1.19-9.85,17.13,17.13,0,0,0-4.37-6.49c0-1.1.86-1.91,2.57-2.43a8.07,8.07,0,0,1,2.26-.28q4.5,0,7.59,4.83c.09-.12.21-.29.34-.5a11.5,11.5,0,0,1,1-1.18,14.23,14.23,0,0,1,1.54-1.49,7.43,7.43,0,0,1,4.51-1.66,7.26,7.26,0,0,1,3.52.69c.81.46,1.28.91,1.4,1.33l.19.69a16.9,16.9,0,0,0-4.37,6.49,28,28,0,0,0-1.2,9.07,64.3,64.3,0,0,0,.51,9.08,18.82,18.82,0,0,0,1.24,5,10.68,10.68,0,0,0,1.49,2.44,17.94,17.94,0,0,0,1.27,1.34,1.25,1.25,0,0,1,.51.89,1.28,1.28,0,0,1-.51.9,13.13,13.13,0,0,0-1.27,1.4,12.37,12.37,0,0,0-1.49,2.56q-1.75,3.81-1.75,11.59t1.2,11.32A16.58,16.58,0,0,0,160,73c0,1.11-.86,1.93-2.58,2.49a10.44,10.44,0,0,1-2.69.27,6.28,6.28,0,0,1-3.61-1.33,10.79,10.79,0,0,1-2.76-2.62l-.83-1.34a7.92,7.92,0,0,1-1.1,1.61A13.14,13.14,0,0,1,144.63,74a6.63,6.63,0,0,1-4.12,1.84,11.53,11.53,0,0,1-2.88-.27,4.38,4.38,0,0,1-1.47-.69,3.26,3.26,0,0,1-1.1-1.8A15.2,15.2,0,0,0,139,67.8a22.77,22.77,0,0,0,1.54-7.36l-16.1-22.87q-.27,5.66-.28,15.46t1.2,13.36A16.75,16.75,0,0,0,129.72,73c0,1.14-.86,2-2.58,2.49a8.36,8.36,0,0,1-2.25.27Q120.38,75.8,117.3,70.51Z"/><path class="cls-3" d="M190.73,21.7q0-21.16,21-21.16,8.61,0,13.71,4.64,4.32,4,4.33,11.5,0,10.68,3.58,15.09a1.79,1.79,0,0,1-.89,1,3.26,3.26,0,0,1-1.68.46,9.73,9.73,0,0,1-1.75-.16,9.55,9.55,0,0,1-1.5-.42,11.21,11.21,0,0,1-2.41-1.31c-.34-.24-.65-.49-.94-.74a7.67,7.67,0,0,1-.76-.69,6.41,6.41,0,0,1-.53-.57l-.32-.39c-.08-.09-.17-.06-.26.09a9.71,9.71,0,0,1-.62.83,9.84,9.84,0,0,1-2,1.61,5.19,5.19,0,0,1-2.81,1,13.38,13.38,0,0,1-2.11-.14,5.19,5.19,0,0,1-1.34-.37,4.52,4.52,0,0,1-.89-.52,2.84,2.84,0,0,1-.58-.56,2,2,0,0,1-.28-.57,2.06,2.06,0,0,1-.13-.71,10.7,10.7,0,0,1,1.24-2.51q3.72-6.59,3.73-10.12,0-5.67-2.4-7a6.48,6.48,0,0,0-2.92-.55,6.21,6.21,0,0,0-3.26.85,4.93,4.93,0,0,0-2.05,2.51,20.75,20.75,0,0,0-1.06,7.38,48.71,48.71,0,0,0,.55,8,19.61,19.61,0,0,0,1.34,4.95,14.18,14.18,0,0,0,1.54,2.64,17.32,17.32,0,0,0,1.31,1.57,1.55,1.55,0,0,1,.55,1,1.16,1.16,0,0,1-.51.83,13.15,13.15,0,0,0-1.26,1.36,11.63,11.63,0,0,0-1.5,2.48q-1.74,3.73-1.74,12.38v2.53q0,5.94.43,7.06c.29.75.53,1.36.72,1.82a2.72,2.72,0,0,0,.64,1,6.22,6.22,0,0,0,.87.67,3.85,3.85,0,0,0,2.4.65,4.15,4.15,0,0,0,2.6-.79,5.06,5.06,0,0,0,1.54-1.81,11.57,11.57,0,0,0,.83-2.7,39.16,39.16,0,0,0,.36-6.07,19,19,0,0,0-.82-6.21,10.47,10.47,0,0,0-3.36-4.37c0-.8.64-1.39,1.93-1.79a7.43,7.43,0,0,1,2.16-.23,8.11,8.11,0,0,1,3.15.73,9.78,9.78,0,0,1,2.56,1.47l.78.74A11.87,11.87,0,0,1,225.37,46a10.33,10.33,0,0,1,3.91-.87,5.71,5.71,0,0,1,2.69.5,2.4,2.4,0,0,1,1.17,1.52,9.32,9.32,0,0,0-3,4,24.93,24.93,0,0,0-.73,7.22,21.34,21.34,0,0,0,1.26,8.08,16,16,0,0,0,4.58,5.82,2.87,2.87,0,0,1-1.75,2.53,7.82,7.82,0,0,1-3.84,1,7.58,7.58,0,0,1-4.12-1.29,9.79,9.79,0,0,1-3.31-3.58,15.85,15.85,0,0,1-13.59,6.9q-8.64,0-13.28-5.34t-4.64-16.75q0-12.37-4.47-16.19a1.29,1.29,0,0,1-.5-.87,1.23,1.23,0,0,1,.5-.86,14.88,14.88,0,0,0,1.25-1.26,10.66,10.66,0,0,0,1.47-2.3Q190.72,30.77,190.73,21.7Z"/><path class="cls-3" d="M190.73,21.7q0-21.16,21-21.16,8.61,0,13.71,4.64,4.32,4,4.33,11.5,0,10.68,3.58,15.09a1.79,1.79,0,0,1-.89,1,3.26,3.26,0,0,1-1.68.46,9.73,9.73,0,0,1-1.75-.16,9.55,9.55,0,0,1-1.5-.42,11.21,11.21,0,0,1-2.41-1.31c-.34-.24-.65-.49-.94-.74a7.67,7.67,0,0,1-.76-.69,6.41,6.41,0,0,1-.53-.57l-.32-.39c-.08-.09-.17-.06-.26.09a9.71,9.71,0,0,1-.62.83,9.84,9.84,0,0,1-2,1.61,5.19,5.19,0,0,1-2.81,1,13.38,13.38,0,0,1-2.11-.14,5.19,5.19,0,0,1-1.34-.37,4.52,4.52,0,0,1-.89-.52,2.84,2.84,0,0,1-.58-.56,2,2,0,0,1-.28-.57,2.06,2.06,0,0,1-.13-.71,10.7,10.7,0,0,1,1.24-2.51q3.72-6.59,3.73-10.12,0-5.67-2.4-7a6.48,6.48,0,0,0-2.92-.55,6.21,6.21,0,0,0-3.26.85,4.93,4.93,0,0,0-2.05,2.51,20.75,20.75,0,0,0-1.06,7.38,48.71,48.71,0,0,0,.55,8,19.61,19.61,0,0,0,1.34,4.95,14.18,14.18,0,0,0,1.54,2.64,17.32,17.32,0,0,0,1.31,1.57,1.55,1.55,0,0,1,.55,1,1.16,1.16,0,0,1-.51.83,13.15,13.15,0,0,0-1.26,1.36,11.63,11.63,0,0,0-1.5,2.48q-1.74,3.73-1.74,12.38v2.53q0,5.94.43,7.06c.29.75.53,1.36.72,1.82a2.72,2.72,0,0,0,.64,1,6.22,6.22,0,0,0,.87.67,3.85,3.85,0,0,0,2.4.65,4.15,4.15,0,0,0,2.6-.79,5.06,5.06,0,0,0,1.54-1.81,11.57,11.57,0,0,0,.83-2.7,39.16,39.16,0,0,0,.36-6.07,19,19,0,0,0-.82-6.21,10.47,10.47,0,0,0-3.36-4.37c0-.8.64-1.39,1.93-1.79a7.43,7.43,0,0,1,2.16-.23,8.11,8.11,0,0,1,3.15.73,9.78,9.78,0,0,1,2.56,1.47l.78.74A11.87,11.87,0,0,1,225.37,46a10.33,10.33,0,0,1,3.91-.87,5.71,5.71,0,0,1,2.69.5,2.4,2.4,0,0,1,1.17,1.52,9.32,9.32,0,0,0-3,4,24.93,24.93,0,0,0-.73,7.22,21.34,21.34,0,0,0,1.26,8.08,16,16,0,0,0,4.58,5.82,2.87,2.87,0,0,1-1.75,2.53,7.82,7.82,0,0,1-3.84,1,7.58,7.58,0,0,1-4.12-1.29,9.79,9.79,0,0,1-3.31-3.58,15.85,15.85,0,0,1-13.59,6.9q-8.64,0-13.28-5.34t-4.64-16.75q0-12.37-4.47-16.19a1.29,1.29,0,0,1-.5-.87,1.23,1.23,0,0,1,.5-.86,14.88,14.88,0,0,0,1.25-1.26,10.66,10.66,0,0,0,1.47-2.3Q190.72,30.77,190.73,21.7Z"/><path class="cls-3" d="M280.58,71q-2.44,4.83-7.41,4.83a7,7,0,0,1-3.59-.64,5.79,5.79,0,0,1-1.89-2.07,13.4,13.4,0,0,0,2.9-8.88A26.66,26.66,0,0,0,270,57.4c-.41-1.44-.87-3-1.38-4.78s-1-3.46-1.4-5.11h-.32l-10.54,0c-.18.77-.51,2-1,3.82s-.78,3.13-1,4.05a35.45,35.45,0,0,0-.92,8,14.06,14.06,0,0,0,3.36,9.71,1.3,1.3,0,0,0-.1.27,2.71,2.71,0,0,1-.34.67,4.41,4.41,0,0,1-.67.85,3.48,3.48,0,0,1-2.46.92,6,6,0,0,1-2.53-.5,5,5,0,0,1-1.68-1.2A8,8,0,0,1,247.17,71a19.52,19.52,0,0,1-4.6,3.36,10.23,10.23,0,0,1-4.69,1.47c-2.15,0-3.22-.8-3.22-2.39v-.32a23.18,23.18,0,0,0,5.75-6.37,44.31,44.31,0,0,0,3.82-10l2.39-8.42a13.21,13.21,0,0,0-5,2.39c-.31,0-.59-.23-.85-.69a3.31,3.31,0,0,1-.39-1.66q0-2.16,3.22-3.82a4,4,0,0,1-1.66-1.15,4.1,4.1,0,0,1-1.56-2.5,6.07,6.07,0,0,1,.13-1.48,3.85,3.85,0,0,1,.28-.71,1.46,1.46,0,0,1,.83-.55A14.72,14.72,0,0,0,248.69,41L254,22.11A39.25,39.25,0,0,0,255.82,12a14.09,14.09,0,0,0-2.43-7.59V4.22q0-2.58,5.19-2.58c1.78,0,3.72,1.14,5.8,3.4a18.17,18.17,0,0,1,1.43,1.89,8.53,8.53,0,0,1,5.24-4.74,9.72,9.72,0,0,1,3.18-.55,3.64,3.64,0,0,1,2.39.69,4,4,0,0,1,1.2,2.07,26.91,26.91,0,0,0-1.34,8.81,42.42,42.42,0,0,0,.83,8.81,51.71,51.71,0,0,0,2.09,7.25,22.51,22.51,0,0,0,2.39,4.94,16.11,16.11,0,0,0,2.1,2.46c.64.6,1.16,1,1.54,1.34s.58.57.58.85a1.58,1.58,0,0,1-.37.9c-.25.32-.52.65-.83,1q-1.2,1.38-1.2,5.52a40.15,40.15,0,0,0,3.2,15.48q3.19,7.71,7.52,11.34v.18c0,1.69-1.52,2.53-4.58,2.53S283.64,74.19,280.58,71ZM265.72,41.39Q262,26.3,261.76,25q-1.93,7.83-4,16.38h7.92Z"/><path class="cls-3" d="M280.58,71q-2.44,4.83-7.41,4.83a7,7,0,0,1-3.59-.64,5.79,5.79,0,0,1-1.89-2.07,13.4,13.4,0,0,0,2.9-8.88A26.66,26.66,0,0,0,270,57.4c-.41-1.44-.87-3-1.38-4.78s-1-3.46-1.4-5.11h-.32l-10.54,0c-.18.77-.51,2-1,3.82s-.78,3.13-1,4.05a35.45,35.45,0,0,0-.92,8,14.06,14.06,0,0,0,3.36,9.71,1.3,1.3,0,0,0-.1.27,2.71,2.71,0,0,1-.34.67,4.41,4.41,0,0,1-.67.85,3.48,3.48,0,0,1-2.46.92,6,6,0,0,1-2.53-.5,5,5,0,0,1-1.68-1.2A8,8,0,0,1,247.17,71a19.52,19.52,0,0,1-4.6,3.36,10.23,10.23,0,0,1-4.69,1.47c-2.15,0-3.22-.8-3.22-2.39v-.32a23.18,23.18,0,0,0,5.75-6.37,44.31,44.31,0,0,0,3.82-10l2.39-8.42a13.21,13.21,0,0,0-5,2.39c-.31,0-.59-.23-.85-.69a3.31,3.31,0,0,1-.39-1.66q0-2.16,3.22-3.82a4,4,0,0,1-1.66-1.15,4.1,4.1,0,0,1-1.56-2.5,6.07,6.07,0,0,1,.13-1.48,3.85,3.85,0,0,1,.28-.71,1.46,1.46,0,0,1,.83-.55A14.72,14.72,0,0,0,248.69,41L254,22.11A39.25,39.25,0,0,0,255.82,12a14.09,14.09,0,0,0-2.43-7.59V4.22q0-2.58,5.19-2.58c1.78,0,3.72,1.14,5.8,3.4a18.17,18.17,0,0,1,1.43,1.89,8.53,8.53,0,0,1,5.24-4.74,9.72,9.72,0,0,1,3.18-.55,3.64,3.64,0,0,1,2.39.69,4,4,0,0,1,1.2,2.07,26.91,26.91,0,0,0-1.34,8.81,42.42,42.42,0,0,0,.83,8.81,51.71,51.71,0,0,0,2.09,7.25,22.51,22.51,0,0,0,2.39,4.94,16.11,16.11,0,0,0,2.1,2.46c.64.6,1.16,1,1.54,1.34s.58.57.58.85a1.58,1.58,0,0,1-.37.9c-.25.32-.52.65-.83,1q-1.2,1.38-1.2,5.52a40.15,40.15,0,0,0,3.2,15.48q3.19,7.71,7.52,11.34v.18c0,1.69-1.52,2.53-4.58,2.53S283.64,74.19,280.58,71ZM265.72,41.39Q262,26.3,261.76,25q-1.93,7.83-4,16.38h7.92Z"/><path class="cls-3" d="M308.59,71a8.87,8.87,0,0,1-1.12,1.5,12.75,12.75,0,0,1-1.73,1.68,7.62,7.62,0,0,1-4.53,1.65,7,7,0,0,1-3.47-.69q-1.2-.69-1.38-1.38l-.19-.69a15,15,0,0,0,4.3-6.85,31.86,31.86,0,0,0,1.27-9.46,57.34,57.34,0,0,0-.51-8.58A18.9,18.9,0,0,0,300,43.37a12.45,12.45,0,0,0-1.49-2.49,11.78,11.78,0,0,0-1.27-1.35,1.21,1.21,0,0,1-.51-.88,1.33,1.33,0,0,1,.51-.92,17,17,0,0,0,1.27-1.4A11.35,11.35,0,0,0,300,33.75q1.75-3.86,1.75-11.84t-1.22-11.3a16.48,16.48,0,0,0-4.35-6.26c0-1.1.85-1.91,2.53-2.43a9.25,9.25,0,0,1,2.46-.28,9.8,9.8,0,0,1,3,.48,11,11,0,0,1,2.58,1.18,15,15,0,0,1,3.4,2.94,4.55,4.55,0,0,1,1.15-1.52,9.47,9.47,0,0,1,2.07-1.47,15.21,15.21,0,0,1,7-1.61c2.61,0,4.56.05,5.87.14a36.56,36.56,0,0,1,3.89.48,21.06,21.06,0,0,1,3.49.92,14.12,14.12,0,0,1,2.95,1.5,10.36,10.36,0,0,1,2.34,2.11,10.74,10.74,0,0,1,2.42,5.52,17.62,17.62,0,0,0,.94,4.4,8.13,8.13,0,0,0,1.15,2.09,8,8,0,0,1,1.52,1.91,1.61,1.61,0,0,1-.46.81c-.31.36-.66.82-1.06,1.38a11.85,11.85,0,0,0-1.86,5.75,10.49,10.49,0,0,1-2.33,5.93,7.07,7.07,0,0,1-5,2.62,10.68,10.68,0,0,1,7.13,7.69,59.12,59.12,0,0,1,1.51,9.34q.6,6,1.16,8.88,1.23,6.48,5.7,9.33a13.92,13.92,0,0,1-10.35,4,9.16,9.16,0,0,1-5.94-1.94,10.89,10.89,0,0,1-3.47-5,38.78,38.78,0,0,1-1.66-6.79c-.38-2.46-.66-4.94-.82-7.43s-.4-4.75-.67-6.8c-.68-4.64-2.24-6.95-4.69-6.95H316V55.79a37.74,37.74,0,0,0,1.11,10.42,17.58,17.58,0,0,0,4,6.83c0,1.14-.85,2-2.53,2.49a9.1,9.1,0,0,1-2.33.27,7.23,7.23,0,0,1-2.6-.5,8.64,8.64,0,0,1-2.16-1.2A12.14,12.14,0,0,1,308.59,71Zm16.66-59.58a5.32,5.32,0,0,0-3.29-1,11.45,11.45,0,0,0-4,.74c-1.33.49-2,1-2,1.56V34.35q5.43,0,8-1.22a4.09,4.09,0,0,0,2.57-3.93V13.6A2.82,2.82,0,0,0,325.25,11.39Z"/><path class="cls-3" d="M308.59,71a8.87,8.87,0,0,1-1.12,1.5,12.75,12.75,0,0,1-1.73,1.68,7.62,7.62,0,0,1-4.53,1.65,7,7,0,0,1-3.47-.69q-1.2-.69-1.38-1.38l-.19-.69a15,15,0,0,0,4.3-6.85,31.86,31.86,0,0,0,1.27-9.46,57.34,57.34,0,0,0-.51-8.58A18.9,18.9,0,0,0,300,43.37a12.45,12.45,0,0,0-1.49-2.49,11.78,11.78,0,0,0-1.27-1.35,1.21,1.21,0,0,1-.51-.88,1.33,1.33,0,0,1,.51-.92,17,17,0,0,0,1.27-1.4A11.35,11.35,0,0,0,300,33.75q1.75-3.86,1.75-11.84t-1.22-11.3a16.48,16.48,0,0,0-4.35-6.26c0-1.1.85-1.91,2.53-2.43a9.25,9.25,0,0,1,2.46-.28,9.8,9.8,0,0,1,3,.48,11,11,0,0,1,2.58,1.18,15,15,0,0,1,3.4,2.94,4.55,4.55,0,0,1,1.15-1.52,9.47,9.47,0,0,1,2.07-1.47,15.21,15.21,0,0,1,7-1.61c2.61,0,4.56.05,5.87.14a36.56,36.56,0,0,1,3.89.48,21.06,21.06,0,0,1,3.49.92,14.12,14.12,0,0,1,2.95,1.5,10.36,10.36,0,0,1,2.34,2.11,10.74,10.74,0,0,1,2.42,5.52,17.62,17.62,0,0,0,.94,4.4,8.13,8.13,0,0,0,1.15,2.09,8,8,0,0,1,1.52,1.91,1.61,1.61,0,0,1-.46.81c-.31.36-.66.82-1.06,1.38a11.85,11.85,0,0,0-1.86,5.75,10.49,10.49,0,0,1-2.33,5.93,7.07,7.07,0,0,1-5,2.62,10.68,10.68,0,0,1,7.13,7.69,59.12,59.12,0,0,1,1.51,9.34q.6,6,1.16,8.88,1.23,6.48,5.7,9.33a13.92,13.92,0,0,1-10.35,4,9.16,9.16,0,0,1-5.94-1.94,10.89,10.89,0,0,1-3.47-5,38.78,38.78,0,0,1-1.66-6.79c-.38-2.46-.66-4.94-.82-7.43s-.4-4.75-.67-6.8c-.68-4.64-2.24-6.95-4.69-6.95H316V55.79a37.74,37.74,0,0,0,1.11,10.42,17.58,17.58,0,0,0,4,6.83c0,1.14-.85,2-2.53,2.49a9.1,9.1,0,0,1-2.33.27,7.23,7.23,0,0,1-2.6-.5,8.64,8.64,0,0,1-2.16-1.2A12.14,12.14,0,0,1,308.59,71Zm16.66-59.58a5.32,5.32,0,0,0-3.29-1,11.45,11.45,0,0,0-4,.74c-1.33.49-2,1-2,1.56V34.35q5.43,0,8-1.22a4.09,4.09,0,0,0,2.57-3.93V13.6A2.82,2.82,0,0,0,325.25,11.39Z"/><path class="cls-3" d="M351.89,73q5.57-5.15,5.56-16.33,0-9.62-1.75-13.34A10.38,10.38,0,0,0,353.5,40c-.71-.61-1.06-1.07-1.06-1.36a1.36,1.36,0,0,1,.5-.92,17,17,0,0,0,1.27-1.4,11,11,0,0,0,1.49-2.58q1.76-3.86,1.75-11.84t-1.22-11.3a16.56,16.56,0,0,0-4.34-6.26c0-1.1.84-1.91,2.53-2.43a10.7,10.7,0,0,1,2.78-.28A7.86,7.86,0,0,1,361,2.79a10.33,10.33,0,0,1,3,2.3l.92,1.15q4.05-4.61,15.45-4.6,8.65,0,13,4.05,5.58,5.2,5.57,16,0,12.33,3.59,16.1a1.33,1.33,0,0,1,.41.88,1.25,1.25,0,0,1-.41.85,8.45,8.45,0,0,0-1,1.35,15.57,15.57,0,0,0-1.17,2.49Q399,47.09,399,56.53T394.1,70.88q-4.86,4.92-13.37,4.92-11.31,0-15.82-5.29a11.21,11.21,0,0,1-5.39,4.74,8.3,8.3,0,0,1-3.12.55,5.83,5.83,0,0,1-2.95-.69q-1.2-.69-1.38-1.38Zm31.88-55.57q0-7.09-5.61-7.09c-3.32,0-5.31,1.09-6,3.27a17.34,17.34,0,0,0-.45,4.71q0,3.3.18,6.67a51.68,51.68,0,0,0,.51,5.39c.21,1.33.44,2.47.68,3.43a10.68,10.68,0,0,0,.74,2.11,12.4,12.4,0,0,0,.69,1.15,3.23,3.23,0,0,1,.69,1.52,2.61,2.61,0,0,1-.55,1.33,19,19,0,0,0-1.2,2.17q-1.74,3.54-1.74,14.72c0,4.63.45,7.51,1.37,8.65a5.72,5.72,0,0,0,4.65,1.84c2.06,0,3.38-.32,4-1A9.15,9.15,0,0,0,383,64.74a6.29,6.29,0,0,0,.55-2.1,53.46,53.46,0,0,0,.23-5.61v-.6c0-7.29-.58-12.1-1.75-14.4-.43-.82-.83-1.52-1.2-2.09a2.85,2.85,0,0,1-.55-1.33,1.55,1.55,0,0,1,.37-1,9.14,9.14,0,0,0,.87-1.47,15.79,15.79,0,0,0,1-2.78Q383.78,29,383.77,17.47Z"/><path class="cls-3" d="M351.89,73q5.57-5.15,5.56-16.33,0-9.62-1.75-13.34A10.38,10.38,0,0,0,353.5,40c-.71-.61-1.06-1.07-1.06-1.36a1.36,1.36,0,0,1,.5-.92,17,17,0,0,0,1.27-1.4,11,11,0,0,0,1.49-2.58q1.76-3.86,1.75-11.84t-1.22-11.3a16.56,16.56,0,0,0-4.34-6.26c0-1.1.84-1.91,2.53-2.43a10.7,10.7,0,0,1,2.78-.28A7.86,7.86,0,0,1,361,2.79a10.33,10.33,0,0,1,3,2.3l.92,1.15q4.05-4.61,15.45-4.6,8.65,0,13,4.05,5.58,5.2,5.57,16,0,12.33,3.59,16.1a1.33,1.33,0,0,1,.41.88,1.25,1.25,0,0,1-.41.85,8.45,8.45,0,0,0-1,1.35,15.57,15.57,0,0,0-1.17,2.49Q399,47.09,399,56.53T394.1,70.88q-4.86,4.92-13.37,4.92-11.31,0-15.82-5.29a11.21,11.21,0,0,1-5.39,4.74,8.3,8.3,0,0,1-3.12.55,5.83,5.83,0,0,1-2.95-.69q-1.2-.69-1.38-1.38Zm31.88-55.57q0-7.09-5.61-7.09c-3.32,0-5.31,1.09-6,3.27a17.34,17.34,0,0,0-.45,4.71q0,3.3.18,6.67a51.68,51.68,0,0,0,.51,5.39c.21,1.33.44,2.47.68,3.43a10.68,10.68,0,0,0,.74,2.11,12.4,12.4,0,0,0,.69,1.15,3.23,3.23,0,0,1,.69,1.52,2.61,2.61,0,0,1-.55,1.33,19,19,0,0,0-1.2,2.17q-1.74,3.54-1.74,14.72c0,4.63.45,7.51,1.37,8.65a5.72,5.72,0,0,0,4.65,1.84c2.06,0,3.38-.32,4-1A9.15,9.15,0,0,0,383,64.74a6.29,6.29,0,0,0,.55-2.1,53.46,53.46,0,0,0,.23-5.61v-.6c0-7.29-.58-12.1-1.75-14.4-.43-.82-.83-1.52-1.2-2.09a2.85,2.85,0,0,1-.55-1.33,1.55,1.55,0,0,1,.37-1,9.14,9.14,0,0,0,.87-1.47,15.79,15.79,0,0,0,1-2.78Q383.78,29,383.77,17.47Z"/><path class="cls-3" d="M443.72,34.17c0,1.65-1.08,3.13-3.22,4.41a3.87,3.87,0,0,1,1.7,1.25,5,5,0,0,1,1.52,3c0,1.5-.31,2.34-.92,2.53l-.33.09q-4.14-2.71-13.11-2.72l-2,20.2c0,2,.61,3.3,1.84,3.82a9.56,9.56,0,0,0,3.61.6,3.93,3.93,0,0,0,3.36-1.68,6.93,6.93,0,0,0,1.22-4.17,9.85,9.85,0,0,0-3.27-7.26,2.43,2.43,0,0,1,2.71-1.84q3.92,0,5.89,2l.69.69a8.41,8.41,0,0,1,6.08-2.66,4.27,4.27,0,0,1,2.14.46,2.29,2.29,0,0,1,1.08,1.38Q449,57.17,449,63.73t4.19,10.05c0,.8-.65,1.39-1.93,1.79a5.57,5.57,0,0,1-1.71.23q-4.54,0-7.82-4.37a11,11,0,0,1-4.88,3.27,15.79,15.79,0,0,1-5.17,1.1,14.39,14.39,0,0,1-3.31-.3,10.58,10.58,0,0,1-2.17-.76,14.09,14.09,0,0,1-1.77-1A12.81,12.81,0,0,1,423,72.58a15.26,15.26,0,0,1-1.89-2,11.23,11.23,0,0,1-5.7,4.69,8.88,8.88,0,0,1-3.22.55,5.94,5.94,0,0,1-3-.69,2.73,2.73,0,0,1-1.38-1.38L407.6,73a9.93,9.93,0,0,0,3-2.46c.52-.75.91-1.33,1.17-1.75a6,6,0,0,0,.67-1.91c.19-.85.32-1.55.42-2.09a22.83,22.83,0,0,0,.2-2.71c.05-1.28.07-2.31.07-3.11V55.15q0-11.79-4.51-15.69a1.11,1.11,0,0,1-.5-.83,1.21,1.21,0,0,1,.5-.87,17.94,17.94,0,0,0,1.27-1.34A10.68,10.68,0,0,0,411.37,34q1.75-3.72,1.75-11.66T411.9,10.86a16.51,16.51,0,0,0-4.35-6.51q0-1.65,2.58-2.43a10.54,10.54,0,0,1,2.81-.28,7.73,7.73,0,0,1,4,1.33A11.38,11.38,0,0,1,420,5.6l1,1.33q4.32-5.29,9.75-5.29a17.64,17.64,0,0,1,6,1.13,11.16,11.16,0,0,1,4.9,3.29q3.3-4.42,7.82-4.42a4.93,4.93,0,0,1,2.44.53,2.45,2.45,0,0,1,1.19,1.59,9.89,9.89,0,0,0-3.24,4,13.86,13.86,0,0,0-.95,5.43q0,5.71,3.73,8.51a2.14,2.14,0,0,1-1,1.27,4.47,4.47,0,0,1-2.35.53,7.63,7.63,0,0,1-3-.65A7.88,7.88,0,0,1,444,21.52l-.69-.69a8.32,8.32,0,0,1-6,2.62,4.5,4.5,0,0,1-2.16-.46,2.3,2.3,0,0,1-1.11-1.34,9,9,0,0,0,3.27-6.9q0-4.36-5-4.37t-5,3.18V14l2,20.57a43.54,43.54,0,0,0,8-.58,13.51,13.51,0,0,0,5.13-2.09c.31,0,.59.22.85.66A3.21,3.21,0,0,1,443.72,34.17Z"/><path class="cls-3" d="M443.72,34.17c0,1.65-1.08,3.13-3.22,4.41a3.87,3.87,0,0,1,1.7,1.25,5,5,0,0,1,1.52,3c0,1.5-.31,2.34-.92,2.53l-.33.09q-4.14-2.71-13.11-2.72l-2,20.2c0,2,.61,3.3,1.84,3.82a9.56,9.56,0,0,0,3.61.6,3.93,3.93,0,0,0,3.36-1.68,6.93,6.93,0,0,0,1.22-4.17,9.85,9.85,0,0,0-3.27-7.26,2.43,2.43,0,0,1,2.71-1.84q3.92,0,5.89,2l.69.69a8.41,8.41,0,0,1,6.08-2.66,4.27,4.27,0,0,1,2.14.46,2.29,2.29,0,0,1,1.08,1.38Q449,57.17,449,63.73t4.19,10.05c0,.8-.65,1.39-1.93,1.79a5.57,5.57,0,0,1-1.71.23q-4.54,0-7.82-4.37a11,11,0,0,1-4.88,3.27,15.79,15.79,0,0,1-5.17,1.1,14.39,14.39,0,0,1-3.31-.3,10.58,10.58,0,0,1-2.17-.76,14.09,14.09,0,0,1-1.77-1A12.81,12.81,0,0,1,423,72.58a15.26,15.26,0,0,1-1.89-2,11.23,11.23,0,0,1-5.7,4.69,8.88,8.88,0,0,1-3.22.55,5.94,5.94,0,0,1-3-.69,2.73,2.73,0,0,1-1.38-1.38L407.6,73a9.93,9.93,0,0,0,3-2.46c.52-.75.91-1.33,1.17-1.75a6,6,0,0,0,.67-1.91c.19-.85.32-1.55.42-2.09a22.83,22.83,0,0,0,.2-2.71c.05-1.28.07-2.31.07-3.11V55.15q0-11.79-4.51-15.69a1.11,1.11,0,0,1-.5-.83,1.21,1.21,0,0,1,.5-.87,17.94,17.94,0,0,0,1.27-1.34A10.68,10.68,0,0,0,411.37,34q1.75-3.72,1.75-11.66T411.9,10.86a16.51,16.51,0,0,0-4.35-6.51q0-1.65,2.58-2.43a10.54,10.54,0,0,1,2.81-.28,7.73,7.73,0,0,1,4,1.33A11.38,11.38,0,0,1,420,5.6l1,1.33q4.32-5.29,9.75-5.29a17.64,17.64,0,0,1,6,1.13,11.16,11.16,0,0,1,4.9,3.29q3.3-4.42,7.82-4.42a4.93,4.93,0,0,1,2.44.53,2.45,2.45,0,0,1,1.19,1.59,9.89,9.89,0,0,0-3.24,4,13.86,13.86,0,0,0-.95,5.43q0,5.71,3.73,8.51a2.14,2.14,0,0,1-1,1.27,4.47,4.47,0,0,1-2.35.53,7.63,7.63,0,0,1-3-.65A7.88,7.88,0,0,1,444,21.52l-.69-.69a8.32,8.32,0,0,1-6,2.62,4.5,4.5,0,0,1-2.16-.46,2.3,2.3,0,0,1-1.11-1.34,9,9,0,0,0,3.27-6.9q0-4.36-5-4.37t-5,3.18V14l2,20.57a43.54,43.54,0,0,0,8-.58,13.51,13.51,0,0,0,5.13-2.09c.31,0,.59.22.85.66A3.21,3.21,0,0,1,443.72,34.17Z"/><path class="cls-3" d="M469.85,70.51q-3.18,5.3-7.59,5.29a6.68,6.68,0,0,1-3.29-.69q-1.23-.69-1.41-1.38l-.18-.69a16.75,16.75,0,0,0,4.37-6.65,29,29,0,0,0,1.2-9.11,60.84,60.84,0,0,0-.51-8.85,19.81,19.81,0,0,0-1.24-4.92A11.93,11.93,0,0,0,459.7,41a13.24,13.24,0,0,0-1.26-1.4,1.28,1.28,0,0,1-.51-.9,1.25,1.25,0,0,1,.51-.89,18.17,18.17,0,0,0,1.26-1.34A10.33,10.33,0,0,0,461.2,34q1.74-3.72,1.75-11.73t-1.2-11.41a17.13,17.13,0,0,0-4.37-6.49q0-1.6,2.58-2.43a8.18,8.18,0,0,1,2.3-.28q4.5,0,7.59,4.83A8.92,8.92,0,0,1,471,5,12.75,12.75,0,0,1,472.7,3.3a7.57,7.57,0,0,1,4.53-1.66,7,7,0,0,1,3.47.69c.8.46,1.26.91,1.38,1.33l.19.69a14.28,14.28,0,0,0-4,4.81A18.79,18.79,0,0,0,476.75,16L491.7,39.41q1.47-4.45,1.47-18.72A31.45,31.45,0,0,0,492,10.84a17.13,17.13,0,0,0-4.37-6.49c0-1.1.85-1.91,2.57-2.43a8.07,8.07,0,0,1,2.26-.28q4.5,0,7.59,4.83c.09-.12.2-.29.34-.5a11.5,11.5,0,0,1,1-1.18,13.38,13.38,0,0,1,1.54-1.49,7.41,7.41,0,0,1,4.51-1.66,7.29,7.29,0,0,1,3.52.69c.81.46,1.28.91,1.4,1.33l.18.69a17.13,17.13,0,0,0-4.37,6.49,28.29,28.29,0,0,0-1.19,9.07,66.1,66.1,0,0,0,.5,9.08,19.15,19.15,0,0,0,1.25,5,10.34,10.34,0,0,0,1.49,2.44,17.94,17.94,0,0,0,1.27,1.34,1.26,1.26,0,0,1,.5.89,1.3,1.3,0,0,1-.5.9,13.13,13.13,0,0,0-1.27,1.4,11.94,11.94,0,0,0-1.49,2.56q-1.76,3.81-1.75,11.59t1.19,11.32A16.8,16.8,0,0,0,512.49,73c0,1.11-.85,1.93-2.57,2.49a10.49,10.49,0,0,1-2.69.27,6.33,6.33,0,0,1-3.62-1.33,10.89,10.89,0,0,1-2.75-2.62L500,70.51a8.11,8.11,0,0,1-1.11,1.61A12.08,12.08,0,0,1,497.17,74a6.61,6.61,0,0,1-4.11,1.84,11.47,11.47,0,0,1-2.88-.27,4.38,4.38,0,0,1-1.47-.69,3.26,3.26,0,0,1-1.1-1.8,15.33,15.33,0,0,0,3.93-5.24,23,23,0,0,0,1.54-7.36L477,37.57q-.28,5.66-.28,15.46t1.2,13.36A16.65,16.65,0,0,0,482.27,73c0,1.14-.86,2-2.58,2.49a8.36,8.36,0,0,1-2.25.27Q472.93,75.8,469.85,70.51Z"/><path class="cls-3" d="M469.85,70.51q-3.18,5.3-7.59,5.29a6.68,6.68,0,0,1-3.29-.69q-1.23-.69-1.41-1.38l-.18-.69a16.75,16.75,0,0,0,4.37-6.65,29,29,0,0,0,1.2-9.11,60.84,60.84,0,0,0-.51-8.85,19.81,19.81,0,0,0-1.24-4.92A11.93,11.93,0,0,0,459.7,41a13.24,13.24,0,0,0-1.26-1.4,1.28,1.28,0,0,1-.51-.9,1.25,1.25,0,0,1,.51-.89,18.17,18.17,0,0,0,1.26-1.34A10.33,10.33,0,0,0,461.2,34q1.74-3.72,1.75-11.73t-1.2-11.41a17.13,17.13,0,0,0-4.37-6.49q0-1.6,2.58-2.43a8.18,8.18,0,0,1,2.3-.28q4.5,0,7.59,4.83A8.92,8.92,0,0,1,471,5,12.75,12.75,0,0,1,472.7,3.3a7.57,7.57,0,0,1,4.53-1.66,7,7,0,0,1,3.47.69c.8.46,1.26.91,1.38,1.33l.19.69a14.28,14.28,0,0,0-4,4.81A18.79,18.79,0,0,0,476.75,16L491.7,39.41q1.47-4.45,1.47-18.72A31.45,31.45,0,0,0,492,10.84a17.13,17.13,0,0,0-4.37-6.49c0-1.1.85-1.91,2.57-2.43a8.07,8.07,0,0,1,2.26-.28q4.5,0,7.59,4.83c.09-.12.2-.29.34-.5a11.5,11.5,0,0,1,1-1.18,13.38,13.38,0,0,1,1.54-1.49,7.41,7.41,0,0,1,4.51-1.66,7.29,7.29,0,0,1,3.52.69c.81.46,1.28.91,1.4,1.33l.18.69a17.13,17.13,0,0,0-4.37,6.49,28.29,28.29,0,0,0-1.19,9.07,66.1,66.1,0,0,0,.5,9.08,19.15,19.15,0,0,0,1.25,5,10.34,10.34,0,0,0,1.49,2.44,17.94,17.94,0,0,0,1.27,1.34,1.26,1.26,0,0,1,.5.89,1.3,1.3,0,0,1-.5.9,13.13,13.13,0,0,0-1.27,1.4,11.94,11.94,0,0,0-1.49,2.56q-1.76,3.81-1.75,11.59t1.19,11.32A16.8,16.8,0,0,0,512.49,73c0,1.11-.85,1.93-2.57,2.49a10.49,10.49,0,0,1-2.69.27,6.33,6.33,0,0,1-3.62-1.33,10.89,10.89,0,0,1-2.75-2.62L500,70.51a8.11,8.11,0,0,1-1.11,1.61A12.08,12.08,0,0,1,497.17,74a6.61,6.61,0,0,1-4.11,1.84,11.47,11.47,0,0,1-2.88-.27,4.38,4.38,0,0,1-1.47-.69,3.26,3.26,0,0,1-1.1-1.8,15.33,15.33,0,0,0,3.93-5.24,23,23,0,0,0,1.54-7.36L477,37.57q-.28,5.66-.28,15.46t1.2,13.36A16.65,16.65,0,0,0,482.27,73c0,1.14-.86,2-2.58,2.49a8.36,8.36,0,0,1-2.25.27Q472.93,75.8,469.85,70.51Z"/></g></g></svg>